<svg width="74" height="19" viewBox="0 0 74 19" fill="none" xmlns="http://www.w3.org/2000/svg">
<path d="M13.7143 3C14.6598 3 15.4286 3.76741 15.4286 4.71429V5.57143H0V4.71429C0 3.76741 0.767411 3 1.71429 3H13.7143ZM15.4286 13.2857C15.4286 14.2313 14.6598 15 13.7143 15H1.71429C0.767411 15 0 14.2313 0 13.2857V8.14286H15.4286V13.2857ZM3 11.5714C2.76429 11.5714 2.57143 11.7643 2.57143 12C2.57143 12.2357 2.76429 12.4286 3 12.4286H4.71429C4.95 12.4286 5.14286 12.2357 5.14286 12C5.14286 11.7643 4.95 11.5714 4.71429 11.5714H3ZM6.42857 12.4286H9.85714C10.0929 12.4286 10.2857 12.2357 10.2857 12C10.2857 11.7643 10.0929 11.5714 9.85714 11.5714H6.42857C6.19286 11.5714 6 11.7643 6 12C6 12.2357 6.19286 12.4286 6.42857 12.4286Z" fill="black"/>
<path d="M26.5903 7.442V8.558H35.3383V7.442H26.5903ZM26.5903 9.998V11.114H35.3383V9.998H26.5903ZM27.1483 16.622V17.738H34.7623V16.622H27.1483ZM25.2943 4.868V6.002H36.7603V4.868H25.2943ZM26.3563 12.644V18.44H27.5263V13.76H34.3123V18.386H35.5363V12.644H26.3563ZM29.4523 2.33C29.9203 3.104 30.4783 4.112 30.7123 4.778L31.9363 4.238C31.6663 3.59 31.1263 2.618 30.6223 1.88L29.4523 2.33ZM24.3043 1.952C23.4043 4.67 21.8923 7.37 20.2723 9.134C20.5243 9.44 20.9023 10.106 21.0283 10.412C22.8103 8.378 24.4663 5.336 25.5283 2.312L24.3043 1.952ZM22.7563 6.65V18.494H23.9983V5.426L23.9803 5.408L22.7563 6.65ZM41.2243 3.158V4.454H52.8703V3.158H41.2243ZM41.2243 7.352V8.63H52.8523V7.352H41.2243ZM41.1343 11.654V12.932H52.8883V11.654H41.1343ZM40.4683 3.158V9.674C40.4683 12.212 40.2703 15.416 38.2903 17.648C38.5783 17.828 39.1183 18.278 39.3343 18.548C41.4763 16.154 41.8003 12.428 41.8003 9.692V3.158H40.4683ZM52.3303 3.158V16.604C52.3303 16.946 52.2043 17.054 51.8623 17.072C51.5203 17.072 50.2963 17.09 49.0183 17.036C49.2163 17.396 49.4323 17.99 49.4863 18.35C51.1963 18.368 52.2403 18.35 52.8523 18.134C53.4463 17.9 53.6623 17.486 53.6623 16.604V3.158H52.3303ZM46.1203 3.644V18.278H47.4883V3.644H46.1203ZM56.6503 8.522V9.854H72.7963V8.522H56.6503ZM64.4443 4.436V5.75H70.9603V4.436H64.4443ZM63.5983 1.88V9.152H65.0203V1.88H63.5983ZM63.6523 9.422V18.44H65.0563V9.422H63.6523ZM65.3083 12.824C67.2343 13.598 69.8983 14.786 71.2303 15.506L71.9683 14.3C70.5823 13.616 67.9003 12.518 66.0103 11.798L65.3083 12.824Z" fill="black"/>
</svg>
