<svg width="101" height="100" viewBox="0 0 101 100" fill="none" xmlns="http://www.w3.org/2000/svg">
<rect x="1.58333" y="0.833333" width="98.3333" height="98.3333" rx="19.1667" stroke="#E0E0E0" stroke-width="1.66667"/>
<g clip-path="url(#clip0_7541_7953)">
<path d="M40.4002 64.4316C40.2153 64.6165 40.1361 64.8541 40.1361 65.0653C40.1361 65.3029 40.2153 65.5142 40.4002 65.699C40.585 65.8838 40.8226 65.963 41.0338 65.963C41.2715 65.963 41.4827 65.8838 41.6675 65.699L44.4662 62.9795C44.651 62.8211 44.7302 62.5835 44.7302 62.3194C44.7302 62.0818 44.6246 61.8442 44.4662 61.6594L41.6675 58.9399C41.4827 58.7815 41.2715 58.6759 41.0338 58.6759C40.7962 58.6759 40.5586 58.7551 40.4002 58.9399C40.2418 59.1247 40.1361 59.3359 40.1361 59.5736C40.1361 59.8112 40.2153 60.0488 40.4002 60.2072L42.5388 62.2666L40.4002 64.4316ZM20.651 71.5604C20.6774 71.5604 20.7302 71.5604 20.7566 71.5604C23.212 71.2435 25.3507 70.425 27.0932 69.3953C28.8358 70.5307 30.9744 71.5075 33.3243 71.8508C33.3771 71.8508 33.4035 71.8508 33.4563 71.8508C33.8787 71.8508 34.2484 71.534 34.3276 71.1115C34.3276 71.0587 34.3276 71.0323 34.3276 70.9795C34.3276 70.5571 34.0107 70.1874 33.5883 70.1082C31.7929 69.8442 30.1295 69.1841 28.7038 68.3128L28.7302 68.2864C30.7368 66.7551 32.6642 65.0389 33.3507 63.6396C33.5091 63.3491 33.6675 62.9795 33.6675 62.4778C33.6675 62.3194 33.6411 62.1082 33.5619 61.9234C33.4563 61.633 33.1922 61.3425 32.9018 61.1841C32.6114 61.0257 32.2946 60.9729 31.9777 60.9729H23.2384L24.321 59.2039C24.4002 59.0719 24.453 58.9135 24.453 58.7551C24.453 58.4646 24.2946 58.1742 24.0305 58.0158C23.8985 57.9366 23.7401 57.8838 23.5817 57.8838C23.2913 57.8838 23.0008 58.0422 22.8424 58.3062L20.9414 61.4217C20.8622 61.5538 20.8094 61.7122 20.8094 61.8706C20.8094 62.029 20.8358 62.161 20.915 62.293C21.0734 62.5571 21.3639 62.7419 21.6807 62.7419H31.8193C31.5289 63.2435 30.948 63.93 30.2616 64.6165C29.4959 65.3821 28.5718 66.1742 27.6741 66.8607C27.4893 66.9927 27.3309 67.1247 27.146 67.2567C25.5883 66.095 24.4002 64.7749 23.7665 63.8508C23.6081 63.6132 23.3177 63.4811 23.0536 63.4811C22.8688 63.4811 22.7104 63.534 22.552 63.6396C22.3144 63.798 22.1823 64.0884 22.1823 64.3524C22.1823 64.5109 22.2351 64.6957 22.3408 64.8541C23.0272 65.831 24.1097 67.0719 25.5619 68.2336C24.1361 68.9729 22.4728 69.5538 20.5454 69.8178C20.0965 69.8706 19.7797 70.2666 19.7797 70.6891C19.7797 70.7155 19.7797 70.7683 19.7797 70.7947C19.8325 71.2435 20.2021 71.5604 20.651 71.5604ZM17.4827 69.1049C17.4827 69.5802 17.8787 69.9762 18.354 69.9762C18.8292 69.9762 19.2252 69.5802 19.2252 69.1049V61.8706C19.2252 61.3953 18.8292 60.9993 18.354 60.9993C17.8787 60.9993 17.4827 61.3953 17.4827 61.8706V69.1049ZM54.1295 62.029H61.2847C61.7599 62.029 62.1559 61.633 62.1559 61.1577C62.1559 60.6825 61.7599 60.2864 61.2847 60.2864H55.5289L56.0833 59.1511C56.1361 59.0191 56.1625 58.8871 56.1625 58.7815C56.1625 58.4646 55.9777 58.1478 55.6609 57.9894C55.5289 57.9366 55.4233 57.9102 55.2913 57.9102C54.9744 57.9102 54.6576 58.095 54.4992 58.4118L53.3639 60.7881C53.3111 60.9201 53.2847 61.0257 53.2847 61.1577C53.2847 61.3161 53.3375 61.4745 53.4167 61.633C53.5487 61.897 53.8391 62.029 54.1295 62.029ZM52.9678 65.6726C52.9678 65.1973 52.5718 64.8013 52.0965 64.8013H48.981C48.981 64.4316 48.981 64.1148 48.981 63.798C48.981 63.3755 48.981 63.0059 48.981 62.7155H51.5157C51.7533 62.7155 51.9645 62.6099 52.1493 62.4514C52.3078 62.293 52.4134 62.0554 52.4134 61.8178V58.7815C52.4134 58.3062 52.0173 57.9102 51.5421 57.9102C51.0668 57.9102 50.6708 58.3062 50.6708 58.7815V60.9729H46.2351C45.7599 60.9729 45.3639 61.3689 45.3639 61.8442C45.3639 62.3194 45.7599 62.7155 46.2351 62.7155H47.2649C47.2649 62.9795 47.2649 63.3491 47.2649 63.798C47.2649 65.1709 47.212 67.2567 46.948 69.4217C46.684 71.5604 46.2087 73.7782 45.4167 75.2831C45.3639 75.4151 45.3111 75.5472 45.3111 75.6792C45.3111 75.996 45.4959 76.3128 45.7863 76.4712C45.9183 76.5241 46.0503 76.5769 46.1823 76.5769C46.4992 76.5769 46.816 76.392 46.9744 76.1016C47.8985 74.2534 48.4002 71.9036 48.6642 69.6594C48.7962 68.5769 48.8754 67.5472 48.9282 66.5967H51.1988C51.1724 67.3095 51.146 68.392 51.0404 69.633C50.882 71.666 50.5388 74.1478 49.9315 76.2072C49.9051 76.2864 49.9051 76.3656 49.9051 76.4712C49.9051 76.8409 50.1427 77.2105 50.5388 77.3161C50.618 77.3425 50.6972 77.3425 50.7764 77.3425C51.146 77.3425 51.5157 77.1049 51.6213 76.7089C52.2814 74.4382 52.6246 71.8772 52.783 69.765C52.9414 67.6264 52.9678 65.963 52.9678 65.6726ZM55.4497 75.2567C54.9744 75.2567 54.5784 75.6528 54.5784 76.128C54.5784 76.6033 54.9744 76.9993 55.4497 76.9993H57.8523C58.6972 76.9993 59.3573 76.3128 59.3573 75.4679V70.7419H61.2318C61.7071 70.7419 62.1031 70.3458 62.1031 69.8706C62.1031 69.3953 61.7071 68.9993 61.2318 68.9993H59.3837V67.2567L60.915 64.5901C60.9942 64.458 61.0206 64.2996 61.0206 64.1412C61.0206 63.9828 60.9942 63.8244 60.915 63.6924C60.7566 63.4283 60.4662 63.2435 60.1493 63.2435H55.0272C54.552 63.2435 54.1559 63.6396 54.1559 64.1148C54.1559 64.5901 54.552 64.9861 55.0272 64.9861H58.6444L57.7467 66.5439C57.6675 66.6759 57.6411 66.8343 57.6411 66.9927V68.9729H54.3672C53.8919 68.9729 53.4959 69.3689 53.4959 69.8442C53.4959 70.3194 53.8919 70.7155 54.3672 70.7155H57.6411V75.2039H55.4497V75.2567ZM17.0866 57.9894C16.9546 57.9102 16.8226 57.8838 16.6906 57.8838C16.3738 57.8838 16.0833 58.0422 15.9249 58.359C15.2384 59.6792 13.6807 62.161 11.0668 64.2732C10.8556 64.458 10.75 64.6957 10.75 64.9597C10.75 65.1445 10.8028 65.3557 10.9348 65.5142C11.1196 65.7254 11.3573 65.831 11.6213 65.831C11.8061 65.831 12.0173 65.7782 12.1757 65.6462C12.7566 65.1973 13.2583 64.7221 13.7335 64.2468V70.7947C13.7335 71.2699 14.1295 71.666 14.6048 71.666C15.08 71.666 15.4761 71.2699 15.4761 70.7947V62.2666C16.4266 61.0521 17.0602 59.9696 17.4827 59.2039C17.5619 59.0719 17.5883 58.9399 17.5883 58.8079C17.5355 58.4646 17.3771 58.1478 17.0866 57.9894ZM33.3507 73.6462C33.2186 73.3029 32.8754 73.0917 32.5322 73.0917C32.4266 73.0917 32.321 73.1181 32.2153 73.1445C31.8721 73.2765 31.6609 73.6198 31.6609 73.963C31.6609 74.0686 31.6873 74.1742 31.7137 74.2798L33.5619 79.0323C33.6939 79.3755 34.0371 79.5868 34.3804 79.5868C34.486 79.5868 34.5916 79.5604 34.6972 79.534C35.0404 79.4019 35.2517 79.0587 35.2517 78.7155C35.2517 78.6099 35.2252 78.5043 35.1988 78.3986L33.3507 73.6462ZM61.4695 78.2138C48.7698 78.2138 48.7698 78.2138 48.7434 78.2138C46.9216 78.2138 45.8391 77.6066 45.1526 77.0257C44.7302 76.6825 44.4662 76.3128 44.3342 76.1016V69.2369C44.3342 68.0752 43.4101 67.1511 42.2484 67.1511H40.453C39.9777 67.1511 39.5817 67.5472 39.5817 68.0224C39.5817 68.4976 39.9777 68.8937 40.453 68.8937H42.1691C42.4068 68.8937 42.5916 69.0785 42.5916 69.3161V75.5208C42.5916 75.996 42.4332 76.6033 42.0635 77.1049C41.7203 77.633 41.1922 78.0554 40.5058 78.293C40.1361 78.425 39.8985 78.7683 39.8985 79.1379C39.8985 79.2171 39.8985 79.3227 39.9513 79.4019C40.0833 79.7716 40.4266 80.0092 40.7962 80.0092C40.8754 80.0092 40.981 79.9828 41.0602 79.9564C42.1691 79.6132 43.014 78.9003 43.5421 78.0818C43.5685 78.029 43.5949 78.0026 43.6213 77.9498C43.7533 78.0818 43.8853 78.2138 44.0437 78.3458C44.9942 79.1643 46.5256 79.9564 48.7434 79.9564H48.7698C48.8226 79.9564 48.8226 79.9564 61.4959 79.9564C61.9711 79.9564 62.3672 79.5604 62.3672 79.0851C62.3672 78.6099 61.9447 78.2138 61.4695 78.2138ZM14.552 73.0917C14.0503 73.0917 13.6543 73.4877 13.6543 73.9894V74.0158C13.6543 74.1214 13.6543 74.7815 13.4959 75.6C13.3375 76.4448 13.0206 77.4481 12.4662 78.2402C12.3606 78.3986 12.3078 78.5571 12.3078 78.7419C12.3078 79.0323 12.4398 79.2963 12.7038 79.4811C12.8622 79.5868 13.0206 79.6396 13.2054 79.6396C13.4959 79.6396 13.7599 79.5075 13.9447 79.2435C14.7104 78.1346 15.0536 76.9201 15.2384 75.9432C15.4233 74.9663 15.4233 74.2006 15.4233 74.0422C15.4233 74.0158 15.4233 74.0158 15.4233 74.0158C15.4497 73.4613 15.0536 73.0917 14.552 73.0917ZM81.6411 72.4052C81.8259 72.6165 82.0899 72.6957 82.3276 72.6957C82.5652 72.6957 82.7764 72.6165 82.9612 72.458C83.1724 72.2732 83.2517 72.0092 83.2517 71.7716C83.2517 71.534 83.1724 71.3227 83.014 71.1379L79.6081 67.4415C79.4233 67.2567 79.1856 67.1511 78.9216 67.1511C78.6576 67.1511 78.42 67.2567 78.2352 67.4415L74.8292 71.1379C74.6708 71.3227 74.5916 71.534 74.5916 71.7716C74.5916 72.0356 74.6972 72.2732 74.882 72.458C75.0668 72.6165 75.2781 72.6957 75.5157 72.6957C75.7797 72.6957 76.0173 72.5901 76.2021 72.4052L78.9216 69.4481L81.6411 72.4052ZM74.9876 59.0455C74.9876 58.7023 74.7764 58.359 74.4596 58.2006C74.3276 58.1478 74.1955 58.1214 74.0899 58.1214C73.7467 58.1214 73.4035 58.3326 73.245 58.6495C72.981 59.2303 72.321 60.4976 71.212 62.029C70.1031 63.5604 68.5454 65.3293 66.486 66.9927C66.2484 67.1775 66.1427 67.4415 66.1427 67.7056C66.1427 67.9168 66.2219 68.1016 66.354 68.2864C66.5388 68.5241 66.8028 68.6297 67.0668 68.6297C67.2781 68.6297 67.4629 68.5505 67.6477 68.4184C68.7038 67.5736 69.6543 66.6759 70.4728 65.8046V79.1115C70.4728 79.6132 70.8952 80.0356 71.3969 80.0356C71.8985 80.0356 72.321 79.6132 72.321 79.1115V63.666C72.453 63.4811 72.585 63.2963 72.717 63.1379C73.9051 61.5009 74.618 60.1544 74.9348 59.4415C74.9612 59.3095 74.9876 59.1775 74.9876 59.0455ZM89.8259 63.0587H87.2648V59.0455C87.2648 58.5439 86.8424 58.1214 86.3408 58.1214C85.8391 58.1214 85.4167 58.5439 85.4167 59.0455V63.0587H74.618C74.1163 63.0587 73.6939 63.4812 73.6939 63.9828C73.6939 64.4845 74.1163 64.9069 74.618 64.9069H85.4167V75.6528C85.4167 76.4184 85.0998 77.1313 84.5982 77.633C84.0965 78.1346 83.4101 78.4514 82.618 78.4514C81.8523 78.4514 81.1394 78.1346 80.6378 77.633C80.1361 77.1313 79.8193 76.4448 79.8193 75.6528V73.0653C79.8193 72.5637 79.3969 72.1412 78.8952 72.1412C78.3936 72.1412 77.9711 72.5637 77.9711 73.0653V75.6528C77.9711 78.2138 80.0569 80.2732 82.5916 80.2732C85.1526 80.2732 87.212 78.1874 87.212 75.6528V64.9069H89.7731C90.2747 64.9069 90.6972 64.4845 90.6972 63.9828C90.75 63.4812 90.3276 63.0587 89.8259 63.0587ZM30.3408 73.4878C30.0503 73.2237 29.6543 73.0917 29.2318 73.0917H23.1856C22.684 73.0917 22.288 73.4877 22.288 73.9894C22.288 74.095 22.3144 74.227 22.3408 74.3326L23.3705 76.9465C23.5025 77.2897 23.8457 77.501 24.1889 77.501C24.2946 77.501 24.4002 77.4745 24.5058 77.4481C24.849 77.3161 25.0602 76.9729 25.0602 76.6297C25.0602 76.5241 25.0338 76.4184 25.0074 76.3128L24.453 74.9135H29.047V78.0026C29.047 78.161 28.915 78.2666 28.783 78.2666H19.5157C19.3573 78.2666 19.2517 78.1346 19.2517 78.0026V72.5109C19.2517 72.0092 18.8556 71.6132 18.354 71.6132C17.8523 71.6132 17.4563 72.0092 17.4563 72.5109V78.0554C17.4563 79.1379 18.354 80.0356 19.4365 80.0356H28.8622C29.9711 80.0356 30.8424 79.1379 30.8424 78.0554V74.6759C30.8688 74.1478 30.6312 73.7518 30.3408 73.4878Z" fill="black"/>
<path d="M50.5706 43.6938C51.8549 43.6239 53.0675 46.2255 53.6096 46.9808C53.952 47.4703 54.3087 47.6243 54.6939 48.0858C54.8225 48.2397 55.5074 48.6033 55.7213 48.6173C57.0197 48.7432 57.8329 48.3097 58.4465 48.1418C59.274 47.9179 59.7875 47.8899 60.4867 47.4843C61.143 47.0928 66.1796 45.0226 66.4508 46.701C66.6646 47.9878 63.0406 50.086 62.2417 50.6175C62.0703 50.7292 62.0133 51.0231 61.8137 51.107C60.9147 51.5126 57.4192 52.8554 56.2205 52.5616C54.4373 52.128 52.1543 48.1697 51.4266 46.659C51.284 46.4214 49.6431 43.7358 50.5706 43.6938Z" fill="#EC008C"/>
<path d="M58.6626 44.8858C58.2245 44.6323 58.0603 44.0688 58.3067 43.604C59.3472 41.6743 59.9632 39.4769 60.0041 37.1246C60.0041 37.026 60.0041 36.9414 60.0041 36.8428C60.0041 34.1102 59.2376 31.5607 57.9098 29.4056C56.5818 27.2505 54.6927 25.4898 52.4476 24.3488C51.9959 24.1234 51.8042 23.56 52.0368 23.0952C52.256 22.6303 52.8036 22.4331 53.2553 22.6726C55.8016 23.9685 57.9507 25.9546 59.4565 28.4055C60.9625 30.8564 61.8385 33.7581 61.8385 36.8569C61.8385 36.9696 61.8385 37.0682 61.8385 37.1809C61.7839 39.8431 61.0993 42.3504 59.9082 44.5336C59.744 44.8436 59.4293 45.0126 59.1143 45.0126C58.9638 45.0126 58.7996 44.9703 58.6626 44.8858Z" fill="#EC008C"/>
<path d="M70.3878 34.4036C69.365 30.3027 67.2073 26.6334 64.237 23.813C63.8587 23.4533 63.2702 23.4821 62.9198 23.8706C62.5697 24.2591 62.5977 24.8635 62.976 25.2232C64.5312 26.7053 65.8341 28.432 66.843 30.3458C63.7325 27.7701 59.8236 26.3024 55.7325 26.3024C54.1071 26.3024 52.4678 26.5327 50.8287 27.0219C46.5554 28.2881 43.0946 31.0653 40.867 34.6194C40.5869 35.0655 40.7128 35.6555 41.1471 35.9433C41.3013 36.044 41.4835 36.1016 41.6517 36.1016C41.9598 36.1016 42.2542 35.9433 42.4361 35.6555C44.4398 32.4754 47.522 29.9861 51.347 28.8637C52.8042 28.432 54.2893 28.2306 55.7325 28.2306C59.9778 28.2306 64.0269 30.0005 66.9549 33.0366C66.871 33.0366 66.801 33.0366 66.7168 33.0366C65.4978 33.0366 64.5032 33.3676 63.8024 33.6841C63.102 34.0151 62.6956 34.3461 62.6537 34.3748C62.2473 34.7058 62.1914 35.3101 62.5135 35.7274C62.6956 35.9577 62.976 36.0872 63.2422 36.0872C63.4523 36.0872 63.6485 36.0152 63.8307 35.8714C63.8307 35.8714 63.8307 35.8714 63.8447 35.8569C63.9147 35.7994 64.237 35.5692 64.7413 35.3533C65.2456 35.1375 65.9323 34.936 66.7308 34.936C67.4315 34.936 68.2159 35.0799 69.0986 35.5116C69.4209 35.6699 69.8133 35.6267 70.0934 35.3821C70.3595 35.1375 70.4857 34.7634 70.3878 34.4036Z" fill="#2DA343"/>
<path d="M52.4331 39.0719C54.347 39.0719 55.8985 37.5943 55.8985 35.7715C55.8985 33.9488 54.347 32.4712 52.4331 32.4712C50.5192 32.4712 48.9678 33.9488 48.9678 35.7715C48.9678 37.5943 50.5192 39.0719 52.4331 39.0719Z" fill="#EC008C"/>
<path d="M32.7178 38.756C32.7462 39.2787 32.3345 39.7166 31.8092 39.7307C31.2839 39.759 30.8438 39.3493 30.8296 38.8266C30.8154 38.5582 30.8154 38.3039 30.8154 38.0355C30.8154 33.7127 32.5191 29.7572 35.3158 26.833C37.8145 24.2196 41.1932 22.4113 44.9981 21.9169C43.8055 21.6202 42.5562 21.479 41.2928 21.479C40.6824 21.479 40.0577 21.5213 39.433 21.592C38.9076 21.6485 38.4392 21.2812 38.3824 20.7726C38.3257 20.2499 38.6948 19.7837 39.2057 19.7272C39.9014 19.6425 40.5971 19.6001 41.2928 19.6001C44.6005 19.6001 47.7664 20.5325 50.4923 22.1712C50.7903 22.3407 50.9609 22.6656 50.9466 23.0046C50.9324 23.3437 50.7336 23.6545 50.4355 23.8099C48.4764 24.8129 46.7587 26.2114 45.3958 27.9066C45.2109 28.1327 44.9414 28.2598 44.6573 28.2598C44.4445 28.2598 44.2314 28.1892 44.0611 28.0479C43.6495 27.723 43.5927 27.1297 43.9191 26.72C44.8561 25.5757 45.9209 24.5445 47.1135 23.6686C46.9004 23.6686 46.6876 23.6686 46.4746 23.6827C42.5989 23.8664 39.1631 25.5475 36.6787 28.1468C34.2085 30.7461 32.7036 34.2354 32.7036 38.0496C32.7036 38.2898 32.7036 38.5158 32.7178 38.756Z" fill="#0082C4"/>
<path d="M42.1315 38.3587C41.6491 38.1614 41.0957 38.3868 40.8972 38.8518C40.046 40.8527 39.6203 42.9803 39.6203 45.0939C39.6203 45.1643 39.6203 45.2348 39.6203 45.3052C38.3435 42.5435 37.5773 39.2041 37.5773 35.5969C37.5773 35.4983 37.5773 35.3997 37.5773 35.3151C37.6198 31.5952 38.4996 28.0586 39.8899 25.2405C40.1167 24.7755 39.9182 24.2119 39.45 23.9864C38.9819 23.761 38.4143 23.9442 38.1875 24.4232C36.6693 27.509 35.733 31.3135 35.6762 35.301C35.6762 35.3997 35.6762 35.5124 35.6762 35.611C35.6762 39.7959 36.6268 43.6708 38.2582 46.8411C36.3005 45.5025 34.6831 43.6848 33.6049 41.529C33.3637 41.064 32.7962 40.8809 32.3281 41.1063C31.8599 41.3459 31.6755 41.9095 31.9025 42.3744C33.761 46.038 36.9672 48.8702 40.8404 50.2368C40.9397 50.2793 41.0532 50.2933 41.1525 50.2933C41.3935 50.2933 41.6206 50.2088 41.8052 50.0395C42.0605 49.8001 42.1597 49.4339 42.0605 49.0956C41.6774 47.7993 41.4788 46.4467 41.4788 45.0939C41.4788 43.2199 41.8477 41.3459 42.5996 39.5845C42.8407 39.1055 42.6136 38.556 42.1315 38.3587Z" fill="#FAAB54"/>
</g>
<defs>
<clipPath id="clip0_7541_7953">
<rect width="80" height="80" fill="white" transform="translate(10.75 10)"/>
</clipPath>
</defs>
</svg>
