<svg width="50" height="50" viewBox="0 0 50 50" fill="none" xmlns="http://www.w3.org/2000/svg">
<path d="M18.5314 34.0198C18.4158 34.1353 18.3663 34.2838 18.3663 34.4158C18.3663 34.5644 18.4158 34.6964 18.5314 34.8119C18.6469 34.9274 18.7954 34.9769 18.9274 34.9769C19.0759 34.9769 19.2079 34.9274 19.3234 34.8119L21.0726 33.1122C21.1881 33.0132 21.2376 32.8647 21.2376 32.6997C21.2376 32.5512 21.1716 32.4026 21.0726 32.2871L19.3234 30.5875C19.2079 30.4885 19.0759 30.4224 18.9274 30.4224C18.7789 30.4224 18.6304 30.472 18.5314 30.5875C18.4323 30.703 18.3663 30.835 18.3663 30.9835C18.3663 31.132 18.4158 31.2805 18.5314 31.3795L19.868 32.6667L18.5314 34.0198ZM6.18812 38.4753C6.20462 38.4753 6.23762 38.4753 6.25413 38.4753C7.78878 38.2772 9.12541 37.7657 10.2145 37.1221C11.3036 37.8317 12.6403 38.4422 14.1089 38.6568C14.1419 38.6568 14.1584 38.6568 14.1914 38.6568C14.4554 38.6568 14.6865 38.4587 14.736 38.1947C14.736 38.1617 14.736 38.1452 14.736 38.1122C14.736 37.8482 14.538 37.6172 14.2739 37.5677C13.1518 37.4026 12.1122 36.9901 11.2211 36.4455L11.2376 36.429C12.4917 35.472 13.6964 34.3993 14.1254 33.5248C14.2244 33.3432 14.3234 33.1122 14.3234 32.7987C14.3234 32.6997 14.3069 32.5677 14.2574 32.4522C14.1914 32.2706 14.0264 32.0891 13.8449 31.9901C13.6634 31.8911 13.4653 31.8581 13.2673 31.8581H7.80528L8.48185 30.7525C8.53135 30.67 8.56436 30.571 8.56436 30.472C8.56436 30.2904 8.46535 30.1089 8.30033 30.0099C8.21782 29.9604 8.11881 29.9274 8.0198 29.9274C7.83828 29.9274 7.65677 30.0264 7.55776 30.1914L6.36964 32.1386C6.32013 32.2211 6.28713 32.3201 6.28713 32.4191C6.28713 32.5182 6.30363 32.6007 6.35314 32.6832C6.45215 32.8482 6.63366 32.9637 6.83168 32.9637H13.1683C12.9868 33.2772 12.6238 33.7063 12.1947 34.1353C11.7162 34.6139 11.1386 35.1089 10.5776 35.538C10.462 35.6205 10.363 35.703 10.2475 35.7855C9.27393 35.0594 8.53135 34.2343 8.13531 33.6568C8.0363 33.5083 7.85479 33.4257 7.68977 33.4257C7.57426 33.4257 7.47525 33.4588 7.37624 33.5248C7.22772 33.6238 7.14521 33.8053 7.14521 33.9703C7.14521 34.0693 7.17822 34.1848 7.24422 34.2838C7.67327 34.8944 8.34983 35.67 9.25743 36.396C8.36634 36.8581 7.32673 37.2211 6.12211 37.3861C5.84158 37.4191 5.64356 37.6667 5.64356 37.9307C5.64356 37.9472 5.64356 37.9802 5.64356 37.9967C5.67657 38.2772 5.90759 38.4753 6.18812 38.4753ZM4.20792 36.9406C4.20792 37.2376 4.45545 37.4852 4.75248 37.4852C5.0495 37.4852 5.29703 37.2376 5.29703 36.9406V32.4191C5.29703 32.1221 5.0495 31.8746 4.75248 31.8746C4.45545 31.8746 4.20792 32.1221 4.20792 32.4191V36.9406ZM27.1122 32.5182H31.5842C31.8812 32.5182 32.1287 32.2706 32.1287 31.9736C32.1287 31.6766 31.8812 31.429 31.5842 31.429H27.9868L28.3333 30.7195C28.3663 30.637 28.3828 30.5545 28.3828 30.4885C28.3828 30.2904 28.2673 30.0924 28.0693 29.9934C27.9868 29.9604 27.9208 29.9439 27.8383 29.9439C27.6403 29.9439 27.4422 30.0594 27.3432 30.2574L26.6337 31.7426C26.6007 31.8251 26.5842 31.8911 26.5842 31.9736C26.5842 32.0726 26.6172 32.1716 26.6667 32.2706C26.7492 32.4356 26.9307 32.5182 27.1122 32.5182ZM26.3861 34.7954C26.3861 34.4984 26.1386 34.2508 25.8416 34.2508H23.8944C23.8944 34.0198 23.8944 33.8218 23.8944 33.6238C23.8944 33.3597 23.8944 33.1287 23.8944 32.9472H25.4785C25.6271 32.9472 25.7591 32.8812 25.8746 32.7822C25.9736 32.6832 26.0396 32.5347 26.0396 32.3861V30.4885C26.0396 30.1914 25.7921 29.9439 25.495 29.9439C25.198 29.9439 24.9505 30.1914 24.9505 30.4885V31.8581H22.1782C21.8812 31.8581 21.6337 32.1056 21.6337 32.4026C21.6337 32.6997 21.8812 32.9472 22.1782 32.9472H22.8218C22.8218 33.1122 22.8218 33.3432 22.8218 33.6238C22.8218 34.4819 22.7888 35.7855 22.6238 37.1386C22.4587 38.4752 22.1617 39.8614 21.6667 40.802C21.6337 40.8845 21.6007 40.967 21.6007 41.0495C21.6007 41.2475 21.7162 41.4455 21.8977 41.5446C21.9802 41.5776 22.0627 41.6106 22.1452 41.6106C22.3432 41.6106 22.5413 41.4951 22.6403 41.3135C23.2178 40.1584 23.5314 38.6898 23.6964 37.2871C23.7789 36.6106 23.8284 35.967 23.8614 35.3729H25.2805C25.264 35.8185 25.2475 36.4951 25.1815 37.2706C25.0825 38.5413 24.868 40.0924 24.4884 41.3795C24.4719 41.429 24.4719 41.4785 24.4719 41.5446C24.4719 41.7756 24.6205 42.0066 24.868 42.0726C24.9175 42.0891 24.967 42.0891 25.0165 42.0891C25.2475 42.0891 25.4785 41.9406 25.5446 41.6931C25.9571 40.2739 26.1716 38.6733 26.2706 37.3531C26.3696 36.0165 26.3861 34.9769 26.3861 34.7954ZM27.9373 40.7855C27.6403 40.7855 27.3927 41.033 27.3927 41.33C27.3927 41.6271 27.6403 41.8746 27.9373 41.8746H29.4389C29.967 41.8746 30.3795 41.4455 30.3795 40.9175V37.9637H31.5512C31.8482 37.9637 32.0957 37.7162 32.0957 37.4191C32.0957 37.1221 31.8482 36.8746 31.5512 36.8746H30.396V35.7855L31.3531 34.1188C31.4026 34.0363 31.4191 33.9373 31.4191 33.8383C31.4191 33.7393 31.4026 33.6403 31.3531 33.5578C31.2541 33.3927 31.0726 33.2772 30.8746 33.2772H27.6733C27.3762 33.2772 27.1287 33.5248 27.1287 33.8218C27.1287 34.1188 27.3762 34.3663 27.6733 34.3663H29.934L29.3729 35.3399C29.3234 35.4224 29.3069 35.5215 29.3069 35.6205V36.8581H27.2607C26.9637 36.8581 26.7162 37.1056 26.7162 37.4026C26.7162 37.6997 26.9637 37.9472 27.2607 37.9472H29.3069V40.7525H27.9373V40.7855ZM3.9604 29.9934C3.87789 29.9439 3.79538 29.9274 3.71287 29.9274C3.51485 29.9274 3.33333 30.0264 3.23432 30.2244C2.80528 31.0495 1.83168 32.6007 0.19802 33.9208C0.0660061 34.0363 0 34.1848 0 34.3498C0 34.4654 0.0330028 34.5974 0.115511 34.6964C0.231023 34.8284 0.379538 34.8944 0.544554 34.8944C0.660066 34.8944 0.792079 34.8614 0.891089 34.7789C1.25413 34.4984 1.56766 34.2013 1.86469 33.9043V37.9967C1.86469 38.2937 2.11221 38.5413 2.40924 38.5413C2.70627 38.5413 2.9538 38.2937 2.9538 37.9967V32.6667C3.54785 31.9076 3.94389 31.231 4.20792 30.7525C4.25743 30.67 4.27393 30.5875 4.27393 30.505C4.24092 30.2904 4.14191 30.0924 3.9604 29.9934ZM14.1254 39.7789C14.0429 39.5644 13.8284 39.4323 13.6139 39.4323C13.5479 39.4323 13.4818 39.4488 13.4158 39.4653C13.2013 39.5479 13.0693 39.7624 13.0693 39.9769C13.0693 40.0429 13.0858 40.1089 13.1023 40.1749L14.2574 43.1452C14.3399 43.3597 14.5545 43.4917 14.769 43.4917C14.835 43.4917 14.901 43.4752 14.967 43.4587C15.1815 43.3762 15.3135 43.1617 15.3135 42.9472C15.3135 42.8812 15.297 42.8152 15.2805 42.7492L14.1254 39.7789ZM31.6997 42.6337C23.7624 42.6337 23.7624 42.6337 23.7459 42.6337C22.6073 42.6337 21.9307 42.2541 21.5017 41.8911C21.2376 41.6766 21.0726 41.4455 20.9901 41.3135V37.0231C20.9901 36.297 20.4125 35.7195 19.6865 35.7195H18.5644C18.2673 35.7195 18.0198 35.967 18.0198 36.264C18.0198 36.5611 18.2673 36.8086 18.5644 36.8086H19.637C19.7855 36.8086 19.901 36.9241 19.901 37.0726V40.9505C19.901 41.2475 19.802 41.6271 19.571 41.9406C19.3564 42.2706 19.0264 42.5347 18.5974 42.6832C18.3663 42.7657 18.2178 42.9802 18.2178 43.2112C18.2178 43.2607 18.2178 43.3267 18.2508 43.3762C18.3333 43.6073 18.5479 43.7558 18.7789 43.7558C18.8284 43.7558 18.8944 43.7393 18.9439 43.7228C19.637 43.5083 20.165 43.0627 20.495 42.5512C20.5116 42.5182 20.5281 42.5017 20.5446 42.4686C20.6271 42.5512 20.7096 42.6337 20.8086 42.7162C21.4026 43.2277 22.3597 43.7228 23.7459 43.7228H23.7624C23.7954 43.7228 23.7954 43.7228 31.7162 43.7228C32.0132 43.7228 32.2607 43.4752 32.2607 43.1782C32.2607 42.8812 31.9967 42.6337 31.6997 42.6337ZM2.37624 39.4323C2.06271 39.4323 1.81518 39.6799 1.81518 39.9934V40.0099C1.81518 40.0759 1.81518 40.4885 1.71617 41C1.61716 41.5281 1.41914 42.1551 1.07261 42.6502C1.0066 42.7492 0.973597 42.8482 0.973597 42.9637C0.973597 43.1452 1.05611 43.3102 1.22112 43.4257C1.32013 43.4918 1.41914 43.5248 1.53465 43.5248C1.71617 43.5248 1.88119 43.4422 1.9967 43.2772C2.47525 42.5842 2.68977 41.8251 2.80528 41.2145C2.92079 40.604 2.92079 40.1254 2.92079 40.0264C2.92079 40.0099 2.92079 40.0099 2.92079 40.0099C2.93729 39.6634 2.68977 39.4323 2.37624 39.4323ZM44.3069 39.0033C44.4224 39.1353 44.5875 39.1848 44.736 39.1848C44.8845 39.1848 45.0165 39.1353 45.132 39.0363C45.264 38.9208 45.3135 38.7558 45.3135 38.6073C45.3135 38.4587 45.264 38.3267 45.165 38.2112L43.0363 35.901C42.9208 35.7855 42.7723 35.7195 42.6073 35.7195C42.4422 35.7195 42.2937 35.7855 42.1782 35.901L40.0495 38.2112C39.9505 38.3267 39.901 38.4587 39.901 38.6073C39.901 38.7723 39.967 38.9208 40.0825 39.0363C40.198 39.1353 40.33 39.1848 40.4785 39.1848C40.6436 39.1848 40.7921 39.1188 40.9076 39.0033L42.6073 37.1551L44.3069 39.0033ZM40.1485 30.6535C40.1485 30.4389 40.0165 30.2244 39.8185 30.1254C39.736 30.0924 39.6535 30.0759 39.5875 30.0759C39.3729 30.0759 39.1584 30.2079 39.0594 30.4059C38.8944 30.769 38.4818 31.5611 37.7888 32.5182C37.0957 33.4753 36.1221 34.5809 34.835 35.6205C34.6865 35.736 34.6205 35.901 34.6205 36.066C34.6205 36.198 34.67 36.3135 34.7525 36.429C34.868 36.5776 35.033 36.6436 35.198 36.6436C35.33 36.6436 35.4455 36.5941 35.5611 36.5116C36.2211 35.9835 36.8152 35.4224 37.3267 34.8779V43.1947C37.3267 43.5083 37.5908 43.7723 37.9043 43.7723C38.2178 43.7723 38.4818 43.5083 38.4818 43.1947V33.5413C38.5644 33.4257 38.6469 33.3102 38.7294 33.2112C39.4719 32.1881 39.9175 31.3465 40.1155 30.901C40.132 30.8185 40.1485 30.736 40.1485 30.6535ZM49.4224 33.1617H47.8218V30.6535C47.8218 30.3399 47.5578 30.0759 47.2442 30.0759C46.9307 30.0759 46.6667 30.3399 46.6667 30.6535V33.1617H39.9175C39.604 33.1617 39.3399 33.4257 39.3399 33.7393C39.3399 34.0528 39.604 34.3168 39.9175 34.3168H46.6667V41.033C46.6667 41.5116 46.4686 41.9571 46.1551 42.2706C45.8416 42.5842 45.4125 42.7822 44.9175 42.7822C44.4389 42.7822 43.9934 42.5842 43.6799 42.2706C43.3663 41.9571 43.1683 41.5281 43.1683 41.033V39.4158C43.1683 39.1023 42.9043 38.8383 42.5908 38.8383C42.2772 38.8383 42.0132 39.1023 42.0132 39.4158V41.033C42.0132 42.6337 43.3168 43.9208 44.901 43.9208C46.5017 43.9208 47.7888 42.6172 47.7888 41.033V34.3168H49.3894C49.703 34.3168 49.967 34.0528 49.967 33.7393C50 33.4257 49.736 33.1617 49.4224 33.1617ZM12.2442 39.6799C12.0627 39.5149 11.8152 39.4323 11.5512 39.4323H7.77228C7.45875 39.4323 7.21122 39.6799 7.21122 39.9934C7.21122 40.0594 7.22772 40.1419 7.24422 40.2079L7.88779 41.8416C7.9703 42.0561 8.18482 42.1881 8.39934 42.1881C8.46535 42.1881 8.53135 42.1716 8.59736 42.1551C8.81188 42.0726 8.94389 41.8581 8.94389 41.6436C8.94389 41.5776 8.92739 41.5116 8.91089 41.4455L8.56436 40.571H11.4356V42.5017C11.4356 42.6007 11.3531 42.6667 11.2706 42.6667H5.47855C5.37954 42.6667 5.31353 42.5842 5.31353 42.5017V39.0693C5.31353 38.7558 5.06601 38.5083 4.75248 38.5083C4.43894 38.5083 4.19142 38.7558 4.19142 39.0693V42.5347C4.19142 43.2112 4.75248 43.7723 5.42904 43.7723H11.3201C12.0132 43.7723 12.5578 43.2112 12.5578 42.5347V40.4224C12.5743 40.0924 12.4257 39.8449 12.2442 39.6799Z" fill="black"/>
<path d="M24.8878 21.0586C25.6904 21.0149 26.4483 22.6409 26.7871 23.113C27.0011 23.419 27.2241 23.5152 27.4648 23.8036C27.5452 23.8998 27.9733 24.1271 28.1069 24.1358C28.9185 24.2145 29.4267 23.9436 29.8102 23.8386C30.3274 23.6987 30.6483 23.6812 31.0853 23.4277C31.4955 23.183 34.6434 21.8891 34.8129 22.9381C34.9465 23.7424 32.6815 25.0538 32.1822 25.386C32.0751 25.4558 32.0394 25.6394 31.9147 25.6919C31.3528 25.9454 29.1681 26.7847 28.419 26.601C27.3044 26.33 25.8775 23.8561 25.4228 22.9119C25.3336 22.7634 24.3081 21.0849 24.8878 21.0586Z" fill="#EC008C"/>
<path d="M29.9457 21.8036C29.672 21.6451 29.5693 21.293 29.7233 21.0025C30.3736 19.7964 30.7586 18.423 30.7842 16.9528C30.7842 16.8912 30.7842 16.8384 30.7842 16.7767C30.7842 15.0689 30.3051 13.4754 29.4753 12.1285C28.6452 10.7815 27.4645 9.68109 26.0614 8.968C25.7791 8.82713 25.6593 8.47498 25.8046 8.18447C25.9416 7.89394 26.2838 7.77069 26.5662 7.92036C28.1576 8.7303 29.5008 9.9716 30.4419 11.5034C31.3832 13.0352 31.9307 14.8488 31.9307 16.7856C31.9307 16.856 31.9307 16.9176 31.9307 16.9881C31.8965 18.6519 31.4687 20.219 30.7243 21.5835C30.6216 21.7772 30.4249 21.8829 30.2281 21.8829C30.134 21.8829 30.0314 21.8564 29.9457 21.8036Z" fill="#EC008C"/>
<path d="M37.2731 15.2523C36.6339 12.6892 35.2853 10.3959 33.4289 8.63321C33.1924 8.40839 32.8246 8.42637 32.6056 8.66918C32.3868 8.91202 32.4043 9.28972 32.6408 9.51458C33.6127 10.4409 34.4271 11.5201 35.0576 12.7162C33.1136 11.1064 30.6705 10.1891 28.1136 10.1891C27.0977 10.1891 26.0731 10.333 25.0487 10.6387C22.3779 11.4302 20.2149 13.1659 18.8226 15.3872C18.6476 15.666 18.7263 16.0348 18.9977 16.2146C19.0941 16.2776 19.2079 16.3135 19.3131 16.3135C19.5056 16.3135 19.6896 16.2146 19.8033 16.0348C21.0556 14.0472 22.982 12.4914 25.3726 11.7899C26.2834 11.5201 27.2116 11.3942 28.1136 11.3942C30.7669 11.3942 33.2976 12.5004 35.1276 14.398C35.0751 14.398 35.0314 14.398 34.9787 14.398C34.2169 14.398 33.5952 14.6048 33.1573 14.8026C32.7195 15.0095 32.4655 15.2164 32.4393 15.2343C32.1853 15.4412 32.1504 15.8189 32.3517 16.0797C32.4655 16.2236 32.6408 16.3046 32.8071 16.3046C32.9385 16.3046 33.0611 16.2596 33.1749 16.1697C33.1749 16.1697 33.1749 16.1697 33.1837 16.1606C33.2274 16.1247 33.4289 15.9808 33.7441 15.8459C34.0593 15.711 34.4885 15.5851 34.9875 15.5851C35.4254 15.5851 35.9157 15.675 36.4674 15.9448C36.6688 16.0437 36.9141 16.0168 37.0891 15.8639C37.2555 15.711 37.3344 15.4772 37.2731 15.2523Z" fill="#2DA343"/>
<path d="M26.052 18.17C27.2482 18.17 28.2178 17.2465 28.2178 16.1073C28.2178 14.9681 27.2482 14.0446 26.052 14.0446C24.8557 14.0446 23.8861 14.9681 23.8861 16.1073C23.8861 17.2465 24.8557 18.17 26.052 18.17Z" fill="#EC008C"/>
<path d="M13.7303 17.9724C13.748 18.2991 13.4907 18.5728 13.1624 18.5816C12.8341 18.5993 12.559 18.3433 12.5501 18.0166C12.5413 17.8488 12.5413 17.6899 12.5413 17.5221C12.5413 14.8204 13.606 12.3482 15.354 10.5206C16.9157 8.88716 19.0274 7.75701 21.4054 7.44799C20.6601 7.26258 19.8792 7.17429 19.0896 7.17429C18.7081 7.17429 18.3177 7.20077 17.9272 7.24492C17.5988 7.28024 17.3061 7.05068 17.2706 6.73282C17.2352 6.40614 17.4658 6.11478 17.7852 6.07946C18.22 6.02649 18.6548 6 19.0896 6C21.1569 6 23.1356 6.58273 24.8393 7.60692C25.0256 7.71287 25.1322 7.91594 25.1233 8.12784C25.1144 8.33974 24.9901 8.53399 24.8038 8.63112C23.5794 9.25799 22.5058 10.1321 21.654 11.1916C21.5385 11.3329 21.37 11.4123 21.1924 11.4123C21.0594 11.4123 20.9262 11.3682 20.8198 11.2799C20.5625 11.0768 20.5271 10.706 20.731 10.4499C21.3167 9.73477 21.9822 9.09025 22.7276 8.54282C22.5944 8.54282 22.4614 8.54282 22.3282 8.55165C19.9059 8.66644 17.7586 9.7171 16.2058 11.3417C14.6619 12.9663 13.7214 15.1471 13.7214 17.531C13.7214 17.6811 13.7214 17.8223 13.7303 17.9724Z" fill="#0082C4"/>
<path d="M19.6137 17.7242C19.3122 17.6009 18.9663 17.7418 18.8422 18.0324C18.3102 19.2829 18.0442 20.6127 18.0442 21.9337C18.0442 21.9777 18.0442 22.0218 18.0442 22.0658C17.2462 20.3397 16.7673 18.2526 16.7673 15.9981C16.7673 15.9365 16.7673 15.8748 16.7673 15.822C16.7939 13.4971 17.3437 11.2866 18.2127 9.52532C18.3544 9.23473 18.2303 8.88247 17.9378 8.74155C17.6452 8.60064 17.2904 8.71514 17.1487 9.01455C16.1998 10.9432 15.6146 13.321 15.5791 15.8132C15.5791 15.8748 15.5791 15.9453 15.5791 16.0069C15.5791 18.6225 16.1732 21.0442 17.1929 23.0257C15.9693 22.1891 14.9584 21.0531 14.2846 19.7057C14.1338 19.4151 13.7791 19.3006 13.4865 19.4415C13.1939 19.5912 13.0787 19.9435 13.2205 20.2341C14.3821 22.5238 16.386 24.2939 18.8067 25.148C18.8688 25.1746 18.9398 25.1833 19.0018 25.1833C19.1525 25.1833 19.2944 25.1305 19.4097 25.0247C19.5693 24.8751 19.6313 24.6462 19.5693 24.4348C19.3298 23.6246 19.2058 22.7792 19.2058 21.9337C19.2058 20.7625 19.4363 19.5912 19.9063 18.4904C20.0569 18.191 19.915 17.8475 19.6137 17.7242Z" fill="#FAAB54"/>
</svg>
