<svg width="101" height="100" viewBox="0 0 101 100" fill="none" xmlns="http://www.w3.org/2000/svg">
<rect x="0.916341" y="0.833333" width="98.3333" height="98.3333" rx="19.1667" stroke="#E0E0E0" stroke-width="1.66667"/>
<g clip-path="url(#clip0_7541_7949)">
<path d="M90.0806 68.3826C90.0806 75.2281 84.5062 80.8025 77.6606 80.8025H10.085V31.6121C10.085 24.7665 15.6593 19.1921 22.5049 19.1921H90.0806V68.3826Z" fill="white"/>
<path d="M68.0762 55.7669H73.2103C73.3571 55.7669 73.6993 55.7181 73.8462 55.7181C74.8242 55.5225 75.6554 54.6422 75.6554 53.4198C75.6554 52.2464 74.8242 51.3662 73.8462 51.1218C73.6993 51.0728 73.4062 51.0728 73.2106 51.0728H68.0765V55.7669H68.0762Z" fill="url(#paint0_linear_7541_7949)"/>
<path d="M72.624 23.3481C67.7343 23.3481 63.7245 27.3092 63.7245 32.2477V41.4893H76.2913C76.5848 41.4893 76.9269 41.4893 77.1713 41.5381C80.0074 41.685 82.1101 43.1517 82.1101 45.6941C82.1101 47.699 80.692 49.4105 78.0516 49.7529V49.8504C80.9364 50.0461 83.1369 51.6597 83.1369 54.1533C83.1369 56.8429 80.692 58.6031 77.4647 58.6031H63.6758V76.6952H76.7313C81.6211 76.6952 85.6308 72.7345 85.6308 67.7957V23.3481H72.624V23.3481Z" fill="url(#paint1_linear_7541_7949)"/>
<path d="M75.0196 46.2812C75.0196 45.1075 74.1884 44.325 73.2103 44.1781C73.1128 44.1781 72.8681 44.1294 72.7216 44.1294H68.0762V48.4323H72.7216C72.8684 48.4323 73.1615 48.4323 73.2106 48.3835C74.1887 48.2367 75.0199 47.4545 75.0199 46.2808L75.0196 46.2812Z" fill="url(#paint2_linear_7541_7949)"/>
<path d="M23.4336 23.3481C18.5439 23.3481 14.5341 27.3092 14.5341 32.2477V54.2027C17.028 55.4248 19.6194 56.2073 22.2112 56.2073C25.2916 56.2073 26.954 54.3493 26.954 51.8066V41.4403H34.5821V51.7575C34.5821 55.767 32.0884 59.0434 23.6292 59.0434C18.4951 59.0434 14.4854 57.9184 14.4854 57.9184V76.6462H27.5409C32.4306 76.6462 36.4404 72.6854 36.4404 67.7467V23.3488H23.4333L23.4336 23.3481Z" fill="url(#paint3_linear_7541_7949)"/>
<path d="M48.0304 23.3481C43.1406 23.3481 39.1309 27.3092 39.1309 32.2477V43.8851C41.3804 41.9781 45.2921 40.7556 51.5999 41.0491C54.9737 41.1959 58.592 42.1249 58.592 42.1249V45.89C56.7827 44.961 54.6316 44.1295 51.8442 43.9339C47.0523 43.5917 44.1675 45.9388 44.1675 50.0461C44.1675 54.2024 47.0523 56.5495 51.8442 56.1582C54.6316 55.9626 56.783 55.0827 58.592 54.2024V57.9675C58.592 57.9675 55.0225 58.8965 51.5999 59.0434C45.2921 59.3365 41.3804 58.1141 39.1312 56.2073V76.744H52.1867C57.0764 76.744 61.0859 72.7833 61.0859 67.8445V23.3488H48.0304V23.3481Z" fill="url(#paint4_linear_7541_7949)"/>
</g>
<defs>
<linearGradient id="paint0_linear_7541_7949" x1="63.716" y1="53.4256" x2="85.6897" y2="53.4256" gradientUnits="userSpaceOnUse">
<stop stop-color="#007940"/>
<stop offset="0.2285" stop-color="#00873F"/>
<stop offset="0.7433" stop-color="#40A737"/>
<stop offset="1" stop-color="#5CB531"/>
</linearGradient>
<linearGradient id="paint1_linear_7541_7949" x1="63.716" y1="50.0003" x2="85.6908" y2="50.0003" gradientUnits="userSpaceOnUse">
<stop stop-color="#007940"/>
<stop offset="0.2285" stop-color="#00873F"/>
<stop offset="0.7433" stop-color="#40A737"/>
<stop offset="1" stop-color="#5CB531"/>
</linearGradient>
<linearGradient id="paint2_linear_7541_7949" x1="63.7154" y1="46.2747" x2="85.6903" y2="46.2747" gradientUnits="userSpaceOnUse">
<stop stop-color="#007940"/>
<stop offset="0.2285" stop-color="#00873F"/>
<stop offset="0.7433" stop-color="#40A737"/>
<stop offset="1" stop-color="#5CB531"/>
</linearGradient>
<linearGradient id="paint3_linear_7541_7949" x1="14.524" y1="50.0004" x2="36.8373" y2="50.0004" gradientUnits="userSpaceOnUse">
<stop stop-color="#1F286F"/>
<stop offset="0.4751" stop-color="#004E94"/>
<stop offset="0.8261" stop-color="#0066B1"/>
<stop offset="1" stop-color="#006FBC"/>
</linearGradient>
<linearGradient id="paint4_linear_7541_7949" x1="39.0044" y1="50.0001" x2="60.676" y2="50.0001" gradientUnits="userSpaceOnUse">
<stop stop-color="#6C2C2F"/>
<stop offset="0.1735" stop-color="#882730"/>
<stop offset="0.5731" stop-color="#BE1833"/>
<stop offset="0.8585" stop-color="#DC0436"/>
<stop offset="1" stop-color="#E60039"/>
</linearGradient>
<clipPath id="clip0_7541_7949">
<rect width="80" height="80" fill="white" transform="translate(10.083 10)"/>
</clipPath>
</defs>
</svg>
