<svg width="101" height="100" viewBox="0 0 101 100" fill="none" xmlns="http://www.w3.org/2000/svg">
<rect x="1.75033" y="0.833333" width="98.3333" height="98.3333" rx="19.1667" stroke="#E0E0E0" stroke-width="1.66667"/>
<path d="M40.9222 15.8462H37.6178C37.3809 15.8461 37.1533 15.9386 36.9838 16.104C36.8141 16.2694 36.7159 16.4945 36.71 16.7313V36.4714C36.717 36.7075 36.8158 36.9314 36.9853 37.0958C37.1548 37.2602 37.3816 37.3521 37.6178 37.352H40.9222C41.1583 37.3521 41.3851 37.2602 41.5546 37.0958C41.7241 36.9314 41.8229 36.7075 41.83 36.4714V16.7313C41.824 16.4945 41.7258 16.2694 41.5562 16.104C41.3865 15.9386 41.1591 15.8461 40.9222 15.8462Z" fill="black"/>
<path d="M32.938 32.4317H24.0415V16.7313C24.0356 16.4945 23.9374 16.2694 23.7678 16.104C23.5981 15.9386 23.3706 15.8461 23.1337 15.8462H19.8248C19.5879 15.8461 19.3604 15.9386 19.1908 16.104C19.0212 16.2694 18.9229 16.4945 18.917 16.7313V36.4714C18.9241 36.7075 19.0228 36.9314 19.1923 37.0958C19.3618 37.2602 19.5887 37.3521 19.8248 37.352H32.9425C33.1786 37.3521 33.4055 37.2602 33.575 37.0958C33.7445 36.9314 33.8432 36.7075 33.8503 36.4714V33.2941C33.8387 33.0606 33.7373 32.8405 33.5673 32.6798C33.3973 32.5191 33.1719 32.4303 32.938 32.4317Z" fill="black"/>
<path d="M82.0086 20.7849C82.2456 20.785 82.473 20.6925 82.6427 20.5271C82.8121 20.3618 82.9105 20.1366 82.9164 19.8998V16.7225C82.9105 16.4857 82.8121 16.2606 82.6427 16.0952C82.473 15.9298 82.2456 15.8373 82.0086 15.8374H68.9C68.6631 15.8373 68.4356 15.9298 68.2659 16.0952C68.0961 16.2606 67.9981 16.4857 67.9922 16.7225V36.4717C67.9994 36.7078 68.0979 36.9317 68.2672 37.0961C68.437 37.2605 68.664 37.3524 68.9 37.3523H82.0086C82.2447 37.3524 82.4716 37.2605 82.6409 37.0961C82.8107 36.9317 82.9092 36.7078 82.9164 36.4717V33.2944C82.9046 33.0616 82.8039 32.8422 82.635 32.6817C82.4662 32.5211 82.2415 32.4317 82.0086 32.432H73.1213V29.0686H82.0086C82.2447 29.0687 82.4716 28.9768 82.6409 28.8124C82.8107 28.648 82.9092 28.4241 82.9164 28.1881V25.0107C82.9105 24.7739 82.8121 24.5488 82.6427 24.3835C82.473 24.2181 82.2456 24.1255 82.0086 24.1256H73.1213V20.7849H82.0086Z" fill="black"/>
<path d="M63.5818 15.8464H60.2774C60.0405 15.8464 59.8129 15.9389 59.6434 16.1043C59.4737 16.2696 59.3755 16.4947 59.3696 16.7316V28.1517L50.7455 16.2822C50.6281 16.1268 50.4733 16.0037 50.2955 15.9244C50.1177 15.845 49.9227 15.8119 49.7287 15.8283C49.6774 15.8238 49.6257 15.8238 49.5744 15.8283H46.2428C46.0059 15.8282 45.7783 15.9207 45.6088 16.0861C45.4391 16.2515 45.3409 16.4766 45.335 16.7134V36.4717C45.342 36.7077 45.4408 36.9317 45.6103 37.0961C45.7798 37.2605 46.0066 37.3524 46.2428 37.3523H49.5472C49.7833 37.3524 50.0101 37.2605 50.1796 37.0961C50.3491 36.9317 50.4479 36.7077 50.455 36.4717V24.5387L59.474 36.9165C59.5594 37.039 59.6692 37.1426 59.7965 37.2207C59.9238 37.2988 60.0659 37.3498 60.2138 37.3704H63.5818C63.8179 37.3705 64.0448 37.2786 64.2142 37.1142C64.3838 36.9499 64.4823 36.7259 64.4896 36.4899V16.7316C64.4837 16.4947 64.3852 16.2696 64.2158 16.1043C64.0462 15.9389 63.8187 15.8464 63.5818 15.8464Z" fill="black"/>
<path d="M79.4085 46.1804H22.3622C20.7027 46.1804 19.3574 47.5257 19.3574 49.1852V81.1716C19.3574 82.8311 20.7027 84.1765 22.3622 84.1765H79.4085C81.068 84.1765 82.4133 82.8311 82.4133 81.1716V49.1852C82.4133 47.5257 81.068 46.1804 79.4085 46.1804Z" fill="#06C755"/>
<path d="M42.089 61.0004C42.089 64.3365 39.293 67.019 35.689 67.019H32.9656V71.9529C32.9638 72.0324 32.9464 72.1104 32.9145 72.1831C32.8825 72.2557 32.8365 72.321 32.7792 72.376C32.7219 72.4309 32.6543 72.4736 32.5804 72.5026C32.5064 72.5312 32.4276 72.5448 32.3483 72.543H29.3979C29.2386 72.5457 29.0847 72.4849 28.9699 72.3742C28.8551 72.2639 28.7887 72.1122 28.7852 71.9529V55.5809C28.7887 55.4215 28.8551 55.2701 28.9699 55.1596C29.0847 55.049 29.2386 54.9883 29.3979 54.9908H35.6754C39.3066 54.9772 42.089 57.6597 42.089 61.0004ZM37.9086 61.0004C37.916 60.7047 37.8634 60.4106 37.7539 60.1358C37.6444 59.861 37.4804 59.6112 37.2716 59.4016C37.0629 59.192 36.8138 59.0269 36.5394 58.9164C36.2651 58.8057 35.9711 58.752 35.6754 58.7582H32.952V63.2743H35.6754C35.9741 63.2816 36.271 63.2271 36.5479 63.115C36.8247 63.0029 37.0756 62.835 37.285 62.6216C37.4943 62.4083 37.6576 62.1546 37.7649 61.8759C37.8722 61.5967 37.9211 61.299 37.9086 61.0004Z" fill="white"/>
<path d="M57.612 60.3058V72.2297C57.6114 72.2715 57.6026 72.3128 57.5861 72.3509C57.5696 72.3895 57.5457 72.424 57.5157 72.4531C57.4858 72.4821 57.4505 72.5053 57.4117 72.5207C57.3729 72.5357 57.3314 72.5434 57.2897 72.5429H54.0171C53.9754 72.5434 53.934 72.5357 53.8952 72.5207C53.8564 72.5053 53.821 72.4821 53.7911 72.4531C53.7612 72.424 53.7373 72.3895 53.7208 72.3509C53.7042 72.3128 53.6954 72.2715 53.6948 72.2297V71.3628C52.8324 72.316 51.5524 72.8924 49.8004 72.8924C46.378 72.8924 43.5547 70.0056 43.5547 66.27C43.5547 62.5344 46.378 59.6658 49.8004 59.6658C51.5524 59.6658 52.8324 60.2422 53.6948 61.1954V60.3058C53.6954 60.264 53.7042 60.2228 53.7208 60.1845C53.7373 60.1462 53.7612 60.1115 53.7911 60.0824C53.821 60.0533 53.8564 60.0304 53.8952 60.015C53.934 59.9996 53.9754 59.9919 54.0171 59.9926H57.2897C57.3314 59.9919 57.3729 59.9996 57.4117 60.015C57.4505 60.0304 57.4858 60.0533 57.5157 60.0824C57.5457 60.1115 57.5696 60.1462 57.5861 60.1845C57.6026 60.2228 57.6114 60.264 57.612 60.3058ZM53.6948 66.27C53.6948 64.3863 52.3876 63.2062 50.5856 63.2062C48.7836 63.2062 47.4764 64.3863 47.4764 66.27C47.4764 68.1537 48.7791 69.3293 50.5856 69.3293C52.3921 69.3293 53.6948 68.1492 53.6948 66.27Z" fill="white"/>
<path d="M70.6529 60.3193L67.6481 67.5817L64.5343 60.3193C64.4921 60.2223 64.4222 60.1399 64.3337 60.0825C64.2446 60.0252 64.1408 59.9954 64.035 59.997H60.7034C60.6483 59.9934 60.5932 60.0045 60.5438 60.0291C60.4944 60.0537 60.4523 60.0909 60.4219 60.137C60.3915 60.1831 60.3738 60.2364 60.3706 60.2915C60.3675 60.3466 60.3789 60.4016 60.4038 60.4509L65.5919 72.6018L63.6991 77.1772C63.6804 77.2253 63.6739 77.277 63.6801 77.3283C63.6863 77.3796 63.705 77.4286 63.7347 77.4708C63.7643 77.5131 63.8039 77.5471 63.85 77.5702C63.8961 77.5934 63.9471 77.6052 63.9987 77.6038H67.3349C67.4415 77.6047 67.5464 77.5743 67.6358 77.5162C67.7257 77.4581 67.796 77.3746 67.8387 77.277L74.7925 60.4463C74.8111 60.3983 74.8179 60.3463 74.8115 60.2951C74.8052 60.2439 74.7866 60.195 74.7571 60.1528C74.7271 60.1106 74.6876 60.0763 74.6418 60.0531C74.5955 60.0299 74.5446 60.0184 74.4929 60.0197H71.1567C71.0528 60.0164 70.9502 60.0428 70.8612 60.0959C70.7718 60.149 70.6996 60.2265 70.6529 60.3193Z" fill="white"/>
</svg>
