<svg width="15" height="14" viewBox="0 0 15 14" fill="none" xmlns="http://www.w3.org/2000/svg">
<path d="M11.5449 5.75358C11.5944 5.75188 11.6436 5.76014 11.6898 5.77787C11.7359 5.79561 11.778 5.82245 11.8136 5.85681C11.8491 5.89116 11.8774 5.93232 11.8967 5.97784C11.9161 6.02336 11.926 6.07229 11.926 6.12174C11.926 6.17118 11.9161 6.22012 11.8967 6.26564C11.8774 6.31115 11.8491 6.35231 11.8136 6.38667C11.778 6.42102 11.7359 6.44787 11.6898 6.4656C11.6436 6.48334 11.5944 6.4916 11.5449 6.48989H10.5216V7.14614H11.5449C11.5946 7.14372 11.6443 7.15141 11.691 7.16876C11.7376 7.18611 11.7803 7.21276 11.8163 7.24708C11.8523 7.28141 11.881 7.32269 11.9006 7.36844C11.9203 7.41418 11.9304 7.46344 11.9304 7.51321C11.9304 7.56298 11.9203 7.61223 11.9006 7.65797C11.881 7.70372 11.8523 7.74501 11.8163 7.77933C11.7803 7.81365 11.7376 7.8403 11.691 7.85765C11.6443 7.875 11.5946 7.8827 11.5449 7.88027H10.155C10.0578 7.87992 9.96476 7.84111 9.89614 7.77232C9.82752 7.70354 9.78893 7.61037 9.78881 7.51321V4.73071C9.78881 4.52814 9.95288 4.36189 10.155 4.36189H11.5476C11.642 4.36678 11.731 4.40781 11.796 4.4765C11.8611 4.5452 11.8972 4.63628 11.8969 4.73087C11.8966 4.82547 11.86 4.91633 11.7945 4.98464C11.7291 5.05294 11.6399 5.09345 11.5454 5.09777H10.5221V5.75402L11.5449 5.75358ZM9.29881 7.51277C9.29801 7.61021 9.25876 7.70339 9.18961 7.77205C9.12046 7.8407 9.02701 7.87928 8.92956 7.87939C8.87187 7.87996 8.81483 7.86708 8.76297 7.8418C8.71111 7.81651 8.66584 7.77951 8.63075 7.73371L7.20669 5.79689V7.51233C7.20669 7.60968 7.16802 7.70305 7.09918 7.77188C7.03034 7.84072 6.93698 7.87939 6.83963 7.87939C6.74227 7.87939 6.64891 7.84072 6.58007 7.77188C6.51124 7.70305 6.47256 7.60968 6.47256 7.51233V4.72983C6.47256 4.57277 6.57537 4.43189 6.72325 4.38158C6.75977 4.36868 6.79827 4.36231 6.837 4.36277C6.95075 4.36277 7.05575 4.42446 7.12619 4.51108L8.56162 6.45227V4.72983C8.56162 4.52727 8.72569 4.36102 8.92869 4.36102C9.13169 4.36102 9.29794 4.52727 9.29794 4.72983L9.29881 7.51277ZM5.94931 7.51277C5.94885 7.61036 5.90973 7.70378 5.84052 7.77258C5.77131 7.84138 5.67765 7.87995 5.58006 7.87983C5.4832 7.87902 5.39058 7.84001 5.32233 7.77127C5.25409 7.70253 5.21574 7.60963 5.21563 7.51277V4.73027C5.21563 4.52771 5.37969 4.36146 5.58269 4.36146C5.78525 4.36146 5.94975 4.52771 5.94975 4.73027L5.94931 7.51277ZM4.51125 7.87983H3.11869C3.0212 7.8796 2.92775 7.84093 2.85861 7.7722C2.78947 7.70348 2.75024 7.61025 2.74944 7.51277V4.73027C2.74944 4.52771 2.91569 4.36146 3.11869 4.36146C3.32169 4.36146 3.48575 4.52771 3.48575 4.73027V7.14571H4.51125C4.6086 7.14571 4.70196 7.18438 4.7708 7.25322C4.83964 7.32205 4.87831 7.41542 4.87831 7.51277C4.87831 7.61012 4.83964 7.70348 4.7708 7.77232C4.70196 7.84116 4.6086 7.87983 4.51125 7.87983ZM14.25 6.01521C14.25 2.88227 11.1074 0.33252 7.25 0.33252C3.39256 0.33252 0.25 2.88227 0.25 6.01521C0.25 8.82264 2.74069 11.1742 6.10375 11.6209C6.33169 11.6686 6.64144 11.7714 6.7215 11.9652C6.79194 12.1402 6.767 12.4115 6.74425 12.5965L6.64844 13.1911C6.62087 13.3665 6.50712 13.8819 7.25919 13.5673C8.01344 13.2528 11.2947 11.1886 12.7642 9.49727C13.7692 8.39696 14.25 7.26646 14.25 6.01521Z" fill="#06C755"/>
</svg>
