<svg width="101" height="100" viewBox="0 0 101 100" fill="none" xmlns="http://www.w3.org/2000/svg">
<g clip-path="url(#clip0_7541_7947)">
<g clip-path="url(#clip1_7541_7947)">
<g clip-path="url(#clip2_7541_7947)">
<path d="M39.2773 30.3474H61.1487V69.6553H39.2773V30.3474Z" fill="#FF5F00"/>
<path d="M40.6674 50.0015C40.6674 42.015 44.4167 34.9311 50.1795 30.3474C45.9444 27.0139 40.5981 25 34.7658 25C20.9481 25 9.76953 36.1811 9.76953 50.0015C9.76953 63.8217 20.9481 75.003 34.7655 75.003C40.5978 75.003 45.9441 72.9891 50.1795 69.6553C44.4167 65.1412 40.6674 57.988 40.6674 50.0015V50.0015Z" fill="#EB001B"/>
<path d="M90.657 50.0015C90.657 63.8217 79.4784 75.003 65.6611 75.003C59.8287 75.003 54.4825 72.9891 50.2471 69.6553C56.0794 65.0719 59.7594 57.988 59.7594 50.0015C59.7594 42.015 56.0098 34.9311 50.2471 30.3474C54.4822 27.0139 59.8287 25 65.6611 25C79.4784 25 90.6573 36.2507 90.6573 50.0015H90.657Z" fill="#F79E1B"/>
</g>
</g>
</g>
<rect x="1.08333" y="0.833333" width="98.3333" height="98.3333" rx="19.1667" stroke="#E0E0E0" stroke-width="1.66667"/>
<defs>
<clipPath id="clip0_7541_7947">
<rect x="0.25" width="100" height="100" rx="20" fill="white"/>
</clipPath>
<clipPath id="clip1_7541_7947">
<rect width="175" height="50" fill="white" transform="translate(-37.25 25)"/>
</clipPath>
<clipPath id="clip2_7541_7947">
<rect width="80.9804" height="50.0112" fill="white" transform="translate(9.7627 25)"/>
</clipPath>
</defs>
</svg>
