<svg width="101" height="100" viewBox="0 0 101 100" fill="none" xmlns="http://www.w3.org/2000/svg">
<rect x="1.58333" y="0.833333" width="98.3333" height="98.3333" rx="19.1667" stroke="#E0E0E0" stroke-width="1.66667"/>
<g clip-path="url(#clip0_7541_7941)">
<path d="M81.5248 26H19.9763C19.72 26 19.4632 26 19.2073 26.0015C18.991 26.003 18.7752 26.0054 18.5594 26.0113C18.0887 26.0241 17.6141 26.0518 17.1493 26.1354C16.6771 26.2203 16.2377 26.3589 15.8091 26.5772C15.3877 26.7915 15.0019 27.0718 14.6675 27.4063C14.333 27.7408 14.0527 28.1259 13.8385 28.5478C13.6202 28.9764 13.4815 29.416 13.3971 29.8885C13.3131 30.3534 13.2852 30.828 13.2725 31.2981C13.2667 31.5139 13.2642 31.7297 13.2628 31.9455C13.2613 32.2019 13.2618 32.4582 13.2618 32.7151V67.2854C13.2618 67.5423 13.2613 67.7981 13.2628 68.0551C13.2642 68.2708 13.2667 68.4866 13.2725 68.7024C13.2852 69.1721 13.3131 69.6467 13.3971 70.1115C13.4815 70.5842 13.6202 71.0236 13.8385 71.4523C14.0527 71.8741 14.333 72.2598 14.6675 72.5938C15.0019 72.9288 15.3877 73.2091 15.8091 73.4228C16.2377 73.6416 16.6771 73.7803 17.1493 73.8652C17.6141 73.9482 18.0887 73.9765 18.5594 73.9892C18.7752 73.9941 18.991 73.997 19.2073 73.998C19.4632 74 19.72 74 19.9763 74H81.5248C81.7807 74 82.0375 74 82.2933 73.998C82.5091 73.997 82.725 73.9941 82.9417 73.9892C83.4114 73.9765 83.886 73.9482 84.3519 73.8652C84.8234 73.7803 85.2629 73.6416 85.6916 73.4228C86.1135 73.2091 86.4981 72.9288 86.8332 72.5938C87.1671 72.2598 87.4474 71.8741 87.6622 71.4523C87.881 71.0236 88.0195 70.5842 88.1035 70.1115C88.1876 69.6467 88.2148 69.1721 88.2276 68.7024C88.2334 68.4866 88.2363 68.2708 88.2373 68.0551C88.2393 67.7981 88.2393 67.5423 88.2393 67.2854V32.7151C88.2393 32.4582 88.2393 32.2019 88.2373 31.9455C88.2363 31.7297 88.2334 31.5139 88.2276 31.2981C88.2148 30.828 88.1876 30.3534 88.1035 29.8885C88.0195 29.416 87.881 28.9764 87.6622 28.5478C87.4474 28.1259 87.1671 27.7408 86.8332 27.4063C86.4981 27.0718 86.1135 26.7915 85.6916 26.5772C85.2629 26.3589 84.8234 26.2203 84.3519 26.1354C83.886 26.0518 83.4114 26.0241 82.9417 26.0113C82.725 26.0054 82.5091 26.003 82.2933 26.0015C82.0375 26 81.7807 26 81.5248 26Z" fill="black"/>
<path d="M81.5245 27.5999L82.2816 27.6013C82.4867 27.6028 82.6919 27.605 82.8981 27.6106C83.2569 27.6203 83.6765 27.6397 84.0677 27.7098C84.4078 27.7711 84.693 27.8642 84.9667 28.0035C85.2369 28.1408 85.4844 28.3208 85.7006 28.5366C85.9176 28.7539 86.0977 29.0019 86.2368 29.2751C86.3754 29.5466 86.4679 29.8305 86.5288 30.173C86.5988 30.5599 86.6181 30.9808 86.6279 31.3417C86.6335 31.5455 86.6362 31.7492 86.6372 31.9578C86.6391 32.2101 86.6391 32.4622 86.6391 32.715V67.2854C86.6391 67.5381 86.6391 67.7898 86.6371 68.0475C86.6362 68.2512 86.6335 68.4549 86.6279 68.659C86.6181 69.0195 86.5988 69.4401 86.528 69.8316C86.4679 70.1694 86.3754 70.4533 86.2361 70.7262C86.0974 70.9987 85.9175 71.2464 85.7015 71.4623C85.4841 71.6798 85.2374 71.8592 84.964 71.9977C84.6923 72.1364 84.4076 72.2294 84.0709 72.29C83.6718 72.3611 83.2345 72.3807 82.9052 72.3896C82.698 72.3943 82.4918 72.3971 82.2806 72.3981C82.0289 72.4001 81.7763 72.4 81.5245 72.4H19.976C19.9726 72.4 19.9693 72.4 19.966 72.4C19.7171 72.4 19.4677 72.4 19.2143 72.3981C19.0077 72.3971 18.8016 72.3943 18.6023 72.3898C18.2654 72.3807 17.8279 72.3612 17.432 72.2905C17.0924 72.2294 16.8077 72.1364 16.5325 71.9959C16.2617 71.8586 16.0151 71.6794 15.7976 71.4615C15.5818 71.2461 15.4025 70.9992 15.2638 70.7263C15.1251 70.4536 15.0322 70.1689 14.9711 69.827C14.9006 69.4363 14.8812 69.0173 14.8715 68.6594C14.8659 68.4544 14.8636 68.2495 14.8623 68.0457L14.8613 67.4442L14.8614 67.2854V32.715L14.8613 32.5562L14.8623 31.9559C14.8636 31.751 14.8659 31.546 14.8715 31.3412C14.8812 30.9829 14.9006 30.5638 14.9717 30.1698C15.0322 29.831 15.1251 29.5463 15.2646 29.2723C15.4021 29.0014 15.5818 28.7542 15.7987 28.5373C16.0148 28.3211 16.2622 28.1414 16.5347 28.0028C16.807 27.8642 17.0923 27.7711 17.4319 27.71C17.8231 27.6397 18.2431 27.6203 18.6028 27.6105C18.8078 27.605 19.0128 27.6028 19.2163 27.6013L19.976 27.5999H81.5245" fill="white"/>
<path d="M33.7316 42.1443C34.3736 41.3413 34.8092 40.2631 34.6944 39.1614C33.7546 39.2081 32.6078 39.7814 31.9438 40.585C31.3477 41.2731 30.82 42.3965 30.9576 43.452C32.0125 43.5435 33.0665 42.9247 33.7316 42.1443Z" fill="black"/>
<path d="M34.6822 43.6582C33.1501 43.567 31.8475 44.5277 31.1159 44.5277C30.3839 44.5277 29.2635 43.7042 28.0518 43.7264C26.4746 43.7496 25.0112 44.6413 24.2108 46.0596C22.5647 48.8969 23.7764 53.1056 25.3772 55.4164C26.1546 56.5596 27.0915 57.8184 28.326 57.7732C29.4924 57.7274 29.9496 57.0179 31.3674 57.0179C32.7842 57.0179 33.196 57.7732 34.4307 57.7503C35.7111 57.7274 36.5116 56.6065 37.289 55.4621C38.1808 54.1589 38.5459 52.9005 38.5688 52.8315C38.5459 52.8086 36.0998 51.8702 36.0771 49.0565C36.054 46.7006 37.9975 45.58 38.089 45.5105C36.9915 43.8872 35.2767 43.7042 34.6822 43.6582Z" fill="black"/>
<path d="M48.0218 40.4697C51.3517 40.4697 53.6704 42.765 53.6704 46.1068C53.6704 49.4605 51.304 51.7677 47.9383 51.7677H44.2516V57.6307H41.5879V40.4697H48.0218V40.4697ZM44.2516 49.5318H47.308C49.6271 49.5318 50.947 48.2832 50.947 46.1187C50.947 43.9544 49.6271 42.7175 47.3199 42.7175H44.2516V49.5318V49.5318Z" fill="black"/>
<path d="M54.3662 54.0749C54.3662 51.8865 56.0431 50.5428 59.0164 50.3762L62.4412 50.1741V49.2109C62.4412 47.8194 61.5016 46.987 59.9321 46.987C58.4452 46.987 57.5176 47.7004 57.2919 48.8184H54.8658C55.0085 46.5587 56.9349 44.8938 60.0271 44.8938C63.0597 44.8938 64.998 46.4993 64.998 49.0086V57.6307H62.5362V55.5733H62.477C61.7517 56.9648 60.1698 57.8447 58.5287 57.8447C56.0788 57.8447 54.3662 56.3225 54.3662 54.0749ZM62.4412 52.9452V51.9581L59.361 52.1483C57.8268 52.2554 56.9588 52.9333 56.9588 54.0036C56.9588 55.0976 57.8626 55.8112 59.2421 55.8112C61.0378 55.8112 62.4412 54.5743 62.4412 52.9452Z" fill="black"/>
<path d="M67.3218 62.2331V60.1518C67.5118 60.1993 67.9398 60.1993 68.1541 60.1993C69.3432 60.1993 69.9855 59.6999 70.3778 58.4156C70.3778 58.3917 70.604 57.6545 70.604 57.6425L66.085 45.1196H68.8675L72.0312 55.2998H72.0785L75.2422 45.1196H77.9536L73.2676 58.2846C72.1978 61.3174 70.9609 62.2925 68.3683 62.2925C68.1541 62.2925 67.5118 62.2686 67.3218 62.2331Z" fill="black"/>
</g>
<defs>
<clipPath id="clip0_7541_7941">
<rect width="74.976" height="48" fill="white" transform="translate(13.2617 26)"/>
</clipPath>
</defs>
</svg>
