<svg width="101" height="100" viewBox="0 0 101 100" fill="none" xmlns="http://www.w3.org/2000/svg">
<rect x="1.41634" y="0.833333" width="98.3333" height="98.3333" rx="19.1667" stroke="#E0E0E0" stroke-width="1.66667"/>
<g clip-path="url(#clip0_7541_7943)">
<path d="M71.6668 26H29.4959C16.3175 26 5.53516 36.8 5.53516 50C5.53516 63.2 16.3175 74 29.4959 74H71.6668C84.8452 74 95.6275 63.2 95.6275 50C95.6275 36.8 84.8452 26 71.6668 26Z" fill="white"/>
<path d="M71.6668 27.944C74.6259 27.944 77.5012 28.532 80.2088 29.684C82.8325 30.8 85.1806 32.396 87.2173 34.424C89.242 36.452 90.8354 38.816 91.9495 41.444C93.0996 44.156 93.6867 47.036 93.6867 50C93.6867 52.964 93.0996 55.844 91.9495 58.556C90.8354 61.184 89.242 63.536 87.2173 65.576C85.1926 67.604 82.8325 69.2 80.2088 70.316C77.5012 71.468 74.6259 72.056 71.6668 72.056H29.4959C26.5367 72.056 23.6614 71.468 20.9539 70.316C18.3302 69.2 15.982 67.604 13.9454 65.576C11.9207 63.548 10.3273 61.184 9.21313 58.556C8.06301 55.844 7.47598 52.964 7.47598 50C7.47598 47.036 8.06301 44.156 9.21313 41.444C10.3273 38.816 11.9207 36.464 13.9454 34.424C15.9701 32.396 18.3302 30.8 20.9539 29.684C23.6614 28.532 26.5367 27.944 29.4959 27.944H71.6668ZM71.6668 26H29.4959C16.3175 26 5.53516 36.8 5.53516 50C5.53516 63.2 16.3175 74 29.4959 74H71.6668C84.8452 74 95.6275 63.2 95.6275 50C95.6275 36.8 84.8452 26 71.6668 26Z" fill="#3C4043"/>
<path d="M48.4965 51.7036V58.9636H46.1963V41.0356H52.2943C53.8398 41.0356 55.1576 41.5516 56.2358 42.5836C57.338 43.6156 57.8891 44.8756 57.8891 46.3636C57.8891 47.8876 57.338 49.1476 56.2358 50.1676C55.1696 51.1876 53.8517 51.6916 52.2943 51.6916H48.4965V51.7036ZM48.4965 43.2436V49.4956H52.3422C53.2527 49.4956 54.0195 49.1836 54.6185 48.5716C55.2295 47.9596 55.541 47.2156 55.541 46.3756C55.541 45.5476 55.2295 44.8156 54.6185 44.2036C54.0195 43.5676 53.2647 43.2556 52.3422 43.2556H48.4965V43.2436Z" fill="#3C4043"/>
<path d="M63.9028 46.2917C65.604 46.2917 66.9458 46.7477 67.9282 47.6597C68.9106 48.5717 69.4018 49.8197 69.4018 51.4037V58.9638H67.2094V57.2597H67.1136C66.1671 58.6637 64.8972 59.3597 63.3158 59.3597C61.962 59.3597 60.8358 58.9637 59.9253 58.1597C59.0148 57.3557 58.5596 56.3597 58.5596 55.1597C58.5596 53.8877 59.0388 52.8797 59.9972 52.1357C60.9556 51.3797 62.2375 51.0077 63.8309 51.0077C65.1967 51.0077 66.3229 51.2597 67.1974 51.7637V51.2357C67.1974 50.4317 66.8859 49.7597 66.251 49.1957C65.616 48.6317 64.8732 48.3557 64.0226 48.3557C62.7407 48.3557 61.7224 48.8957 60.9796 49.9877L58.9549 48.7157C60.0691 47.0957 61.7224 46.2917 63.9028 46.2917ZM60.9317 55.1957C60.9317 55.7957 61.1833 56.2997 61.6984 56.6957C62.2016 57.0917 62.8006 57.2957 63.4835 57.2957C64.4539 57.2957 65.3165 56.9357 66.0713 56.2157C66.826 55.4957 67.2094 54.6557 67.2094 53.6837C66.4906 53.1197 65.4962 52.8317 64.2143 52.8317C63.2798 52.8317 62.5011 53.0597 61.8781 53.5037C61.2432 53.9717 60.9317 54.5357 60.9317 55.1957Z" fill="#3C4043"/>
<path d="M81.91 46.6877L74.2425 64.3517H71.8704L74.7217 58.1717L69.666 46.6877H72.1699L75.8119 55.4957H75.8599L79.4061 46.6877H81.91Z" fill="#3C4043"/>
<path d="M39.3472 50.2398C39.3472 49.4886 39.2801 48.7698 39.1555 48.0786H29.5137V52.0386L35.0666 52.0398C34.8413 53.3574 34.1165 54.4806 33.0059 55.2294V57.7986H36.3113C38.2414 56.0094 39.3472 53.3646 39.3472 50.2398Z" fill="#4285F4"/>
<path d="M33.006 55.2294C32.0859 55.851 30.9011 56.2146 29.5149 56.2146C26.8373 56.2146 24.5659 54.4074 23.7524 51.9714H20.3428V54.621C22.032 57.9786 25.5039 60.2826 29.5149 60.2826C32.2872 60.2826 34.6162 59.3694 36.3114 57.7974L33.006 55.2294Z" fill="#34A853"/>
<path d="M23.4319 50.0058C23.4319 49.3218 23.5457 48.6606 23.753 48.039V45.3894H20.3434C19.6449 46.7778 19.252 48.345 19.252 50.0058C19.252 51.6666 19.6461 53.2338 20.3434 54.6222L23.753 51.9726C23.5457 51.351 23.4319 50.6898 23.4319 50.0058Z" fill="#FABB05"/>
<path d="M29.5149 43.7958C31.0281 43.7958 32.383 44.3178 33.4529 45.3378L36.3821 42.4062C34.603 40.7466 32.2836 39.7278 29.5149 39.7278C25.5051 39.7278 22.032 42.0318 20.3428 45.3894L23.7524 48.039C24.5659 45.603 26.8373 43.7958 29.5149 43.7958Z" fill="#E94235"/>
</g>
<defs>
<clipPath id="clip0_7541_7943">
<rect width="90.096" height="48" fill="white" transform="translate(5.53516 26)"/>
</clipPath>
</defs>
</svg>
