<svg width="384" height="384" viewBox="0 0 384 384" fill="none" xmlns="http://www.w3.org/2000/svg">
<rect width="384" height="384" rx="192" fill="url(#paint0_linear_3026_4750)"/>
<path d="M202.988 233.928H168.716L157.484 297H105.644L142.22 89.64H230.06C251.756 89.64 267.212 94.632 276.428 104.616C283.148 112.296 286.508 122.088 286.508 133.992C286.508 138.024 286.124 142.248 285.356 146.664L279.596 179.208C276.716 195.144 268.268 208.296 254.252 218.664C240.236 228.84 223.148 233.928 202.988 233.928ZM211.916 134.568H185.996L176.492 189H202.124C217.868 189 226.988 181.992 229.484 167.976L231.5 156.168C231.884 154.44 232.076 152.136 232.076 149.256C232.076 146.376 230.636 143.208 227.756 139.752C224.876 136.296 219.596 134.568 211.916 134.568Z" fill="white"/>
<defs>
<linearGradient id="paint0_linear_3026_4750" x1="0" y1="0" x2="459.887" y2="147.675" gradientUnits="userSpaceOnUse">
<stop stop-color="#FF8008"/>
<stop offset="1" stop-color="#FFC837"/>
</linearGradient>
</defs>
</svg>
