<svg width="20" height="20" viewBox="0 0 20 20" fill="none" xmlns="http://www.w3.org/2000/svg">
<g clip-path="url(#clip0_5716_46291)">
<path d="M9.99977 20C8.43241 19.9988 6.88723 19.6295 5.48874 18.9218C4.09024 18.2141 2.87753 17.1878 1.94831 15.9256C1.01909 14.6634 0.399342 13.2006 0.139007 11.655C-0.121328 10.1094 -0.0149751 8.52426 0.449498 7.0273C0.465991 6.97027 0.493694 6.91711 0.530984 6.87092C0.568274 6.82473 0.614403 6.78644 0.66667 6.7583C0.718937 6.73015 0.776293 6.71272 0.835381 6.70701C0.894469 6.7013 0.954102 6.70744 1.01079 6.72506C1.06748 6.74268 1.12008 6.77143 1.16552 6.80962C1.21096 6.84782 1.24833 6.8947 1.27543 6.94751C1.30254 7.00032 1.31884 7.05801 1.32337 7.1172C1.32791 7.17639 1.3206 7.23589 1.30186 7.29222C0.683346 9.28174 0.766141 11.4232 1.53642 13.3591C2.30669 15.2949 3.71781 16.9079 5.5341 17.9286C7.3504 18.9493 9.4619 19.3159 11.516 18.9673C13.57 18.6186 15.4423 17.5758 16.8201 16.013C18.1979 14.4502 18.9978 12.462 19.0862 10.3804C19.1746 8.29882 18.5462 6.24993 17.3059 4.5759C16.0656 2.90187 14.2885 1.70406 12.2714 1.18251C10.2543 0.660957 8.11926 0.847243 6.22296 1.71025C6.16946 1.73595 6.11138 1.75071 6.0521 1.75369C5.99283 1.75667 5.93356 1.74779 5.87775 1.72759C5.82195 1.70738 5.77073 1.67625 5.7271 1.63602C5.68347 1.59579 5.64831 1.54726 5.62366 1.49327C5.59901 1.43928 5.58537 1.38092 5.58355 1.3216C5.58172 1.26228 5.59175 1.20319 5.61303 1.14779C5.63432 1.09239 5.66643 1.04179 5.70751 0.998946C5.74858 0.956107 5.79779 0.921888 5.85224 0.898292C7.21125 0.279093 8.69168 -0.027883 10.1848 -0.000100082C11.678 0.0276829 13.146 0.38952 14.481 1.05885C15.8161 1.72817 16.9842 2.68799 17.8998 3.86784C18.8154 5.04769 19.4551 6.41761 19.772 7.87702C20.0888 9.33644 20.0749 10.8483 19.731 12.3016C19.3872 13.7549 18.7222 15.1127 17.785 16.2754C16.8477 17.4381 15.662 18.3762 14.3148 19.0207C12.9676 19.6652 11.4932 19.9998 9.99977 20Z" fill="#FF9900"/>
<path d="M2.13921 5.01386C2.0577 5.01394 1.97772 4.9917 1.90796 4.94956C1.83819 4.90741 1.78129 4.84696 1.74344 4.77478C1.70558 4.70259 1.68822 4.62141 1.69323 4.54006C1.69823 4.4587 1.72542 4.38027 1.77184 4.31327C2.44259 3.34402 3.27905 2.50068 4.24277 1.82203C4.33955 1.75381 4.45947 1.72683 4.57615 1.74702C4.69282 1.76722 4.79669 1.83293 4.86491 1.92972C4.93313 2.0265 4.96011 2.14642 4.93992 2.26309C4.91972 2.37976 4.85401 2.48364 4.75722 2.55186C3.87932 3.17018 3.11743 3.93857 2.50658 4.82169C2.46546 4.88105 2.41055 4.92954 2.34656 4.96301C2.28257 4.99648 2.21142 5.01393 2.13921 5.01386Z" fill="#FF9900"/>
<path d="M8.53333 13.8107C8.02252 13.8107 7.76712 13.6479 7.76712 13.3222V4.68473C7.75532 4.60218 7.76291 4.51802 7.78929 4.43892C7.81566 4.35981 7.8601 4.28794 7.91907 4.22899C7.97804 4.17004 8.04993 4.12563 8.12905 4.09929C8.20816 4.07294 8.29232 4.06538 8.37486 4.0772H10.7128C13.187 4.0772 14.4243 5.05924 14.4244 7.0233C14.4244 8.04477 14.0896 8.81968 13.4201 9.34804C12.7597 9.86763 11.8744 10.1273 10.7641 10.1272H9.29775V13.3222C9.29879 13.648 9.04398 13.8109 8.53333 13.8107ZM9.29931 8.89698H10.6204C11.4038 8.89698 11.9805 8.74737 12.3505 8.44814C12.7291 8.13985 12.9184 7.6643 12.9186 7.02152C12.9186 6.40507 12.7251 5.96918 12.3383 5.71385C11.9588 5.4496 11.3682 5.31747 10.5664 5.31747H9.60218C9.56085 5.31138 9.51868 5.31505 9.47902 5.32817C9.43936 5.3413 9.40332 5.36352 9.37379 5.39306C9.34425 5.42259 9.32203 5.45863 9.3089 5.49829C9.29578 5.53795 9.29211 5.58012 9.2982 5.62145L9.29931 8.89698Z" fill="#FF9900"/>
<path d="M13.7026 16.2834H6.53818C6.41979 16.2834 6.30625 16.2364 6.22254 16.1526C6.13883 16.0689 6.0918 15.9554 6.0918 15.837C6.0918 15.7186 6.13883 15.6051 6.22254 15.5214C6.30625 15.4377 6.41979 15.3906 6.53818 15.3906H13.7026C13.8209 15.3906 13.9345 15.4377 14.0182 15.5214C14.1019 15.6051 14.1489 15.7186 14.1489 15.837C14.1489 15.9554 14.1019 16.0689 14.0182 16.1526C13.9345 16.2364 13.8209 16.2834 13.7026 16.2834Z" fill="#FF9900"/>
</g>
<defs>
<clipPath id="clip0_5716_46291">
<rect width="19.9998" height="20" fill="white"/>
</clipPath>
</defs>
</svg>
