<svg width="20" height="14" viewBox="0 0 20 14" fill="none" xmlns="http://www.w3.org/2000/svg">
<path d="M0.545139 8.57631L0.790212 9.28514C1.73657 8.95794 2.41667 8.05787 2.41667 6.99992C2.41667 5.9424 1.73712 5.04263 0.791368 4.7151C0.776534 4.70983 0.762382 4.70316 0.75 4.6959V2.55547C0.75 1.74399 1.41074 1.08325 2.22222 1.08325H17.7778C18.5893 1.08325 19.25 1.74399 19.25 2.55547V4.6959C19.2373 4.70335 19.2227 4.71017 19.2075 4.7155L19.4549 5.42353M0.545139 8.57631L0.792522 9.28433C0.77727 9.28966 0.762703 9.29648 0.75 9.30393V11.4444C0.75 12.2558 1.41074 12.9166 2.22222 12.9166H17.7778C18.5893 12.9166 19.25 12.2558 19.25 11.4444V9.30393C19.2376 9.29667 19.2235 9.29 19.2086 9.28474C18.2629 8.95721 17.5833 8.05744 17.5833 6.99992C17.5833 5.94197 18.2634 5.0419 19.2098 4.7147L19.4549 5.42353M0.545139 8.57631C0.256944 8.677 0 8.91658 0 9.22214V11.4444C0 12.6701 0.996528 13.6666 2.22222 13.6666H17.7778C19.0035 13.6666 20 12.6701 20 11.4444V9.22214C20 8.91658 19.7431 8.677 19.4549 8.57631C18.8021 8.35061 18.3333 7.72908 18.3333 6.99992C18.3333 6.27075 18.8021 5.64922 19.4549 5.42353M0.545139 8.57631C1.19792 8.35061 1.66667 7.72908 1.66667 6.99992C1.66667 6.27075 1.19792 5.64922 0.545139 5.42353H19.4549" stroke="#FF9900" stroke-width="1.5"/>
</svg>
