<svg width="108" height="107" viewBox="0 0 108 107" fill="none" xmlns="http://www.w3.org/2000/svg">
<path fill-rule="evenodd" clip-rule="evenodd" d="M75.3 21.5499C57.7 21.5499 43.5 35.7499 43.5 53.3499C43.5 70.9499 57.7 85.1499 75.3 85.1499C92.9 85.1499 107.1 70.9499 107.1 53.3499C107.1 35.7499 92.8 21.5499 75.3 21.5499ZM73.2 74.4499C72 74.6499 71.4 74.8499 71.4 74.8499C69.4 75.3499 67.9 76.8499 67 79.1499C66.7 79.9499 65.9 80.3499 65 80.0499H64.9C64.2 79.8499 63.8 79.2499 64 78.0499C64.2 76.2499 64.6 74.4499 65 72.6499C68 59.2499 74.1 52.7499 78.5 49.6499C79 49.2499 79.4 48.8499 79.3 48.6499C79.1 48.3499 77.9 48.8499 76.6 49.4499C73 51.7499 65.8 57.0499 62.8 69.3499C62.6 70.2499 62.3 71.1499 62 71.3499C61.2 71.7499 60.3 70.5499 59.6 69.3499C57 64.3499 56.4 59.5499 57.9 55.1499C61.5 44.5499 74.5 38.2499 80 35.8499C83.9 34.1499 86.7 32.7499 89.5 30.5499C90.4 29.8499 90.8 29.5499 91.4 29.6499C91.9 29.7499 92.5 30.4499 92.5 31.9499C93 55.1499 85.4 72.0499 73.2 74.4499Z" fill="white"/>
<path fill-rule="evenodd" clip-rule="evenodd" d="M41.2001 67.05C38.2001 71.05 34.5001 73.65 30.2001 74.45C29.0001 74.65 28.4001 74.85 28.4001 74.85C26.4001 75.35 24.9001 76.85 24.0001 79.15C23.7001 79.95 22.9001 80.35 22.0001 80.05H21.9001C21.2001 79.85 20.8001 79.25 21.0001 78.05C21.2001 76.25 21.6001 74.45 22.0001 72.65C25.0001 59.25 31.1001 52.75 35.5001 49.65C36.0001 49.25 36.4 48.85 36.3 48.65C36.1 48.35 34.9001 48.85 33.6001 49.45C30.0001 51.75 22.8 57.05 19.8 69.35C19.6 70.25 19.3001 71.15 19.0001 71.35C18.2001 71.75 17.3001 70.55 16.6001 69.35C14.0001 64.35 13.4001 59.55 14.9001 55.15C18.5001 44.55 31.5001 38.25 37.0001 35.85C40.9001 34.15 43.7001 32.75 46.5001 30.55C46.9001 30.25 47.2001 30.05 47.4001 29.85C48.3001 28.85 49.2001 27.85 50.3 26.95C45.2001 23.45 39.0001 21.35 32.4001 21.35C14.8001 21.35 0.600098 35.55 0.600098 53.15C0.600098 70.75 14.8001 84.95 32.4001 84.95C39.0001 84.95 45.2001 82.95 50.3 79.35C46.4 76.25 43.2001 71.85 41.2001 67.05Z" fill="white"/>
</svg>
