<svg width="110" height="110" viewBox="0 0 110 110" fill="none" xmlns="http://www.w3.org/2000/svg">
<path fill-rule="evenodd" clip-rule="evenodd" d="M75.3 20.15C67.5 20.15 60.3 22.75 54.6 27.15C49 23.05 42 20.55 34.5 20.55C15.7 20.55 0.5 35.85 0.5 54.55C0.5 73.25 15.8 88.55 34.5 88.55C42 88.55 49 86.05 54.6 81.95C60.4 86.35 67.5 88.95 75.3 88.95C94.3 88.95 109.6 73.55 109.6 54.65C109.6 35.75 94.3 20.15 75.3 20.15Z" fill="white"/>
<path fill-rule="evenodd" clip-rule="evenodd" d="M75.2001 24.55C58.6001 24.55 45.1001 38.0501 45.1001 54.6501C45.1001 71.2501 58.6001 84.75 75.2001 84.75C91.8001 84.75 105.3 71.2501 105.3 54.6501C105.3 38.0501 91.8001 24.55 75.2001 24.55ZM73.2001 74.55C72.0001 74.75 71.5001 74.95 71.5001 74.95C69.6001 75.45 68.3001 76.9501 67.4001 79.05C67.1001 79.85 66.3001 80.1501 65.6001 79.8501H65.5001C64.9001 79.6501 64.5001 79.05 64.6001 77.95C64.8001 76.25 65.2001 74.4501 65.5001 72.8501C68.4001 60.2501 74.1001 54.05 78.2001 51.05C78.7001 50.75 79.0001 50.3501 78.9001 50.1501C78.7001 49.9501 77.5001 50.35 76.3001 50.95C72.9001 53.05 66.1001 58.0501 63.3001 69.8501C63.1001 70.7501 62.8001 71.55 62.5001 71.75C61.7001 72.15 60.8001 71.0501 60.2001 69.8501C57.7001 65.1501 57.1001 60.6501 58.6001 56.3501C62.1001 46.3501 74.3001 40.35 79.5001 38.05C83.2001 36.45 85.8001 35.15 88.4001 33.05C89.2001 32.35 89.6001 32.05 90.2001 32.25C90.7001 32.35 91.2001 32.9501 91.3001 34.4501C91.9001 56.1501 84.8001 72.15 73.2001 74.55Z" fill="#00783F"/>
<path fill-rule="evenodd" clip-rule="evenodd" d="M42.8998 67.4501C40.0998 71.2501 36.5998 73.6501 32.4998 74.5501C31.2998 74.7501 30.7998 74.9501 30.7998 74.9501C28.8998 75.4501 27.5998 76.9501 26.6998 79.0501C26.3998 79.8501 25.5998 80.1501 24.8998 79.8501H24.7998C24.1998 79.6501 23.7998 79.0501 23.8998 77.9501C24.0998 76.2501 24.4998 74.4501 24.7998 72.8501C27.6998 60.2501 33.3998 54.0501 37.4998 51.0501C37.9998 50.7501 38.2998 50.3501 38.1998 50.1501C37.9998 49.9501 36.7998 50.3501 35.5998 50.9501C32.1998 53.0501 25.3998 58.0501 22.5998 69.8501C22.3998 70.7501 22.0998 71.5501 21.7998 71.7501C20.9998 72.1501 20.0998 71.0501 19.4998 69.8501C16.9998 65.1501 16.3998 60.6501 17.8998 56.3501C21.3998 46.3501 33.5998 40.3501 38.7998 38.0501C42.4998 36.4501 45.0998 35.1501 47.6998 33.0501C48.0998 32.7501 48.2998 32.5501 48.5998 32.3501C49.3998 31.4501 50.2998 30.5501 51.2998 29.7501C46.4998 26.4501 40.5998 24.4501 34.3998 24.4501C17.7998 24.4501 4.2998 37.9501 4.2998 54.5501C4.2998 71.1501 17.7998 84.6501 34.3998 84.6501C40.6998 84.6501 46.4998 82.6501 51.2998 79.3501C47.7998 76.1501 44.8998 72.0501 42.8998 67.4501Z" fill="#FFB548"/>
</svg>
