<svg width="101" height="101" viewBox="0 0 101 101" fill="none" xmlns="http://www.w3.org/2000/svg">
<path fill-rule="evenodd" clip-rule="evenodd" d="M70.7999 20.35C54.1999 20.35 40.7 33.85 40.7 50.45C40.7 67.0499 54.1999 80.55 70.7999 80.55C87.3999 80.55 100.9 67.0499 100.9 50.45C100.9 33.75 87.3999 20.35 70.7999 20.35ZM68.9 70.35C67.7 70.55 67.2 70.75 67.2 70.75C65.3 71.25 64 72.75 63.1 74.85C62.8 75.65 61.9999 75.95 61.2999 75.65H61.2C60.6 75.45 60.1999 74.85 60.2999 73.75C60.4999 72.05 60.9 70.25 61.2 68.65C64.1 56.05 69.8 49.85 73.9 46.85C74.4 46.55 74.7 46.15 74.6 45.95C74.4 45.75 73.1999 46.15 71.9999 46.75C68.5999 48.85 61.7999 53.85 58.9999 65.65C58.7999 66.55 58.5 67.35 58.2 67.55C57.4 67.95 56.5 66.85 55.9 65.65C53.4 60.95 52.8 56.45 54.3 52.15C57.8 42.15 70 36.15 75.2 33.85C78.9 32.25 81.5 30.95 84.1 28.85C84.9 28.15 85.3 27.85 85.9 28.05C86.4 28.15 86.8999 28.75 86.9999 30.25C87.5999 52.05 80.5 68.05 68.9 70.35Z" fill="#040000"/>
<path fill-rule="evenodd" clip-rule="evenodd" d="M38.6 63.35C35.8 67.15 32.3 69.5499 28.2 70.45C27 70.65 26.5 70.85 26.5 70.85C24.6 71.35 23.3 72.85 22.4 74.95C22.1 75.75 21.3 76.05 20.6 75.75H20.5C19.9 75.55 19.5 74.95 19.6 73.85C19.8 72.15 20.2 70.35 20.5 68.75C23.4 56.15 29.1 49.95 33.2 46.95C33.7 46.65 34 46.25 33.9 46.05C33.7 45.85 32.5 46.25 31.3 46.85C27.9 48.95 21.1 53.95 18.3 65.75C18.1 66.65 17.8 67.45 17.5 67.65C16.7 68.05 15.8 66.95 15.2 65.75C12.7 61.05 12.1 56.55 13.6 52.25C17.1 42.25 29.3 36.25 34.5 33.95C38.2 32.35 40.8 31.05 43.4 28.95C43.8 28.65 44 28.45 44.3 28.25C45.1 27.35 46 26.45 47 25.65C42.2 22.35 36.3 20.35 30.1 20.35C13.5 20.35 0 33.85 0 50.45C0 67.0499 13.5 80.55 30.1 80.55C36.4 80.55 42.2 78.55 47 75.25C43.5 71.95 40.5 67.95 38.6 63.35Z" fill="#9FA0A0"/>
</svg>
