<svg width="107" height="107" viewBox="0 0 107 107" fill="none" xmlns="http://www.w3.org/2000/svg">
<path fill-rule="evenodd" clip-rule="evenodd" d="M74.6999 21.6001C57.0999 21.6001 42.8999 35.8001 42.8999 53.4001C42.8999 71.0001 57.0999 85.2001 74.6999 85.2001C92.2999 85.2001 106.5 71.0001 106.5 53.4001C106.5 35.8001 92.2999 21.6001 74.6999 21.6001ZM72.5999 74.5001C71.3999 74.7001 70.7999 74.9001 70.7999 74.9001C68.7999 75.4001 67.2999 76.9001 66.3999 79.2001C66.0999 80.0001 65.2999 80.4001 64.3999 80.1001H64.2999C63.5999 79.9001 63.1999 79.3001 63.3999 78.1001C63.5999 76.3001 63.9999 74.5001 64.3999 72.7001C67.3999 59.3001 73.4999 52.8001 77.8999 49.7001C78.3999 49.3001 78.7999 48.9001 78.6999 48.7001C78.4999 48.4001 77.2999 48.9001 75.9999 49.5001C72.3999 51.8001 65.1999 57.1001 62.1999 69.4001C61.9999 70.3001 61.6999 71.2001 61.3999 71.4001C60.5999 71.8001 59.6999 70.6001 58.9999 69.4001C56.3999 64.4001 55.7999 59.6001 57.2999 55.2001C60.8999 44.6001 73.8999 38.3001 79.3999 35.9001C83.2999 34.2001 86.0999 32.8001 88.8999 30.6001C89.7999 29.9001 90.1999 29.6001 90.7999 29.7001C91.2999 29.8001 91.8999 30.5001 91.8999 32.0001C92.3999 55.1001 84.8999 72.0001 72.5999 74.5001Z" fill="#00783F"/>
<path fill-rule="evenodd" clip-rule="evenodd" d="M40.6 67C37.6 71 33.9 73.6001 29.6 74.4001C28.4 74.6001 27.8 74.8 27.8 74.8C25.8 75.3 24.3 76.8001 23.4 79.1001C23.1 79.9001 22.3 80.3 21.4 80H21.3C20.6 79.8 20.2 79.2 20.4 78C20.6 76.2 21 74.4001 21.4 72.6001C24.4 59.2001 30.5 52.7001 34.9 49.6001C35.4 49.2001 35.8 48.8001 35.7 48.6001C35.5 48.3001 34.3 48.8 33 49.4C29.4 51.7 22.2 57 19.2 69.3C19 70.2001 18.7 71.1 18.4 71.3C17.6 71.7001 16.7 70.5 16 69.3C13.4 64.3 12.8 59.5001 14.3 55.1001C17.9 44.5001 30.9 38.2 36.4 35.8C40.3 34.1 43.1 32.7 45.9 30.5C46.3 30.2 46.6 30 46.8 29.8C47.7 28.8 48.6 27.8 49.7 26.9C44.6 23.4 38.4 21.3 31.8 21.3C14.2 21.3 0 35.5001 0 53.1001C0 70.7001 14.2 84.9001 31.8 84.9001C38.4 84.9001 44.6 82.9 49.7 79.3C45.7 76.2001 42.7 71.9 40.6 67Z" fill="#FFB548"/>
</svg>
