<svg width="101" height="101" viewBox="0 0 101 101" fill="none" xmlns="http://www.w3.org/2000/svg">
<path fill-rule="evenodd" clip-rule="evenodd" d="M70.9 20.35C54.3 20.35 40.8 33.85 40.8 50.45C40.8 67.05 54.3 80.55 70.9 80.55C87.5 80.55 101 67.05 101 50.45C101 33.75 87.5 20.35 70.9 20.35ZM69 70.35C67.8 70.55 67.3001 70.75 67.3001 70.75C65.4001 71.25 64.1001 72.75 63.2001 74.85C62.9001 75.65 62.1 75.95 61.4 75.65H61.3001C60.7001 75.45 60.3 74.85 60.4 73.75C60.6 72.05 61.0001 70.25 61.3001 68.65C64.2001 56.05 69.9 49.85 74 46.85C74.5 46.55 74.8001 46.15 74.7001 45.95C74.5001 45.75 73.3001 46.15 72.1001 46.75C68.7001 48.85 61.9001 53.85 59.1001 65.65C58.9001 66.55 58.6 67.35 58.3 67.55C57.5 67.95 56.6 66.85 56 65.65C53.5 60.95 52.9001 56.45 54.4001 52.15C57.9001 42.15 70.1001 36.15 75.3001 33.85C79.0001 32.25 81.6001 30.95 84.2001 28.85C85.0001 28.15 85.4 27.85 86 28.05C86.5 28.15 87.0001 28.75 87.1001 30.25C87.7001 52.05 80.5 68.05 69 70.35Z" fill="#221714"/>
<path fill-rule="evenodd" clip-rule="evenodd" d="M38.7001 63.35C35.9001 67.15 32.4001 69.55 28.3001 70.45C27.1001 70.65 26.6001 70.85 26.6001 70.85C24.7001 71.35 23.4001 72.85 22.5001 74.95C22.2001 75.75 21.4001 76.05 20.7001 75.75H20.6001C20.0001 75.55 19.6001 74.95 19.7001 73.85C19.9001 72.15 20.3001 70.35 20.6001 68.75C23.5001 56.15 29.2001 49.95 33.3001 46.95C33.8001 46.65 34.1001 46.25 34.0001 46.05C33.8001 45.85 32.6001 46.25 31.4001 46.85C28.0001 48.95 21.2001 53.95 18.4001 65.75C18.2001 66.65 17.9001 67.45 17.6001 67.65C16.8001 68.05 15.9001 66.95 15.3001 65.75C12.8001 61.05 12.2001 56.55 13.7001 52.25C17.2001 42.25 29.4001 36.25 34.6001 33.95C38.3001 32.35 40.9001 31.05 43.5001 28.95C43.9001 28.65 44.1001 28.45 44.4001 28.25C45.2001 27.35 46.1001 26.45 47.1001 25.65C42.3001 22.35 36.4001 20.35 30.2001 20.35C13.6001 20.35 0.100098 33.85 0.100098 50.45C0.100098 67.05 13.6001 80.55 30.2001 80.55C36.5001 80.55 42.3001 78.55 47.1001 75.25C43.6001 71.95 40.6001 67.85 38.7001 63.35Z" fill="#221714"/>
</svg>
