<svg width="101" height="100" viewBox="0 0 101 100" fill="none" xmlns="http://www.w3.org/2000/svg">
<rect x="1.25033" y="0.833333" width="98.3333" height="98.3333" rx="19.1667" stroke="#E0E0E0" stroke-width="1.66667"/>
<g clip-path="url(#clip0_7541_7945)">
<path d="M40.7914 37.5363L30.3178 62.5255H23.4845L18.3304 42.5829C18.0173 41.3544 17.7455 40.9047 16.7939 40.3871C15.2403 39.544 12.6743 38.7534 10.417 38.2624L10.5703 37.5361H21.5702C22.9723 37.5361 24.2327 38.4694 24.5509 40.0842L27.273 54.5443L34.0005 37.536L40.7914 37.5363ZM67.5657 54.3665C67.5932 47.7714 58.4458 47.4079 58.5087 44.4618C58.5283 43.5651 59.3822 42.6118 61.2506 42.3683C62.1769 42.2469 64.729 42.1544 67.6236 43.4866L68.7589 38.1877C67.2037 37.6233 65.2025 37.0798 62.7122 37.0798C56.3226 37.0798 51.8262 40.4767 51.7882 45.3403C51.7469 48.9378 54.9978 50.9452 57.4468 52.1406C59.9663 53.3649 60.8116 54.1514 60.8022 55.2465C60.7841 56.923 58.7926 57.663 56.9313 57.6919C53.6823 57.7419 51.7969 56.8128 50.2939 56.1139L49.1224 61.5884C50.6328 62.2814 53.4207 62.886 56.3113 62.9161C63.1027 62.9161 67.5449 59.5617 67.5659 54.3665M84.4383 62.5255H90.417L85.198 37.5363H79.6797C79.0903 37.5311 78.5129 37.7031 78.0223 38.03C77.5318 38.3568 77.1508 38.8236 76.9287 39.3696L67.2282 62.5254H74.016L75.3639 58.7928H83.6574L84.4383 62.5255ZM77.2255 53.671L80.6279 44.2885L82.5862 53.671H77.2255ZM50.0278 37.5363L44.6824 62.5255H38.2183L43.5656 37.5363H50.0278Z" fill="#1434CB"/>
</g>
<defs>
<clipPath id="clip0_7541_7945">
<rect width="80" height="80" fill="white" transform="translate(10.417 10)"/>
</clipPath>
</defs>
</svg>
